<?xml version="1.0" standalone="no"?>
<!DOCTYPE svg PUBLIC "-//W3C//DTD SVG 1.1//EN" "http://www.w3.org/Graphics/SVG/1.1/DTD/svg11.dtd" >
<svg xmlns="http://www.w3.org/2000/svg">
<metadata></metadata>
<defs>
<font id="knowledgelight" horiz-adv-x="1411" >
<font-face units-per-em="2048" ascent="1587" descent="-461" />
<missing-glyph horiz-adv-x="450" />
<glyph unicode="&#xfb01;" horiz-adv-x="1024" d="M61 874v93h144v125q0 149 63.5 220.5t194.5 71.5q74 0 123 -18l-8 -90q-46 16 -99 16q-85 0 -122.5 -47t-37.5 -155v-123h220v-93h-220v-874h-114v874h-144zM713 1225q0 38 24.5 64t65.5 26q40 0 64 -26t24 -64q0 -37 -24 -63.5t-64 -26.5q-41 0 -65.5 26.5t-24.5 63.5z M745 0v967h115v-967h-115z" />
<glyph unicode="&#xfb02;" horiz-adv-x="1124" d="M61 874v93h144v125q0 149 63.5 220.5t194.5 71.5q69 0 125 -18l-8 -90q-43 16 -101 16q-85 0 -122.5 -47t-37.5 -155v-123h220v-93h-220v-874h-114v874h-144zM748 219v1145h114v-1147q0 -67 25.5 -101t85.5 -34q39 0 84 10l4 -90q-51 -14 -119 -14q-105 0 -149.5 60.5 t-44.5 170.5z" />
<glyph horiz-adv-x="2048" />
<glyph horiz-adv-x="2048" />
<glyph unicode="&#xd;" horiz-adv-x="2048" />
<glyph unicode=" "  horiz-adv-x="450" />
<glyph unicode="&#x09;" horiz-adv-x="450" />
<glyph unicode="&#xa0;" horiz-adv-x="450" />
<glyph unicode="!" horiz-adv-x="479" d="M145 82q0 41 26 67.5t69 26.5t68.5 -26.5t25.5 -67.5q0 -42 -25 -68t-69 -26t-69.5 26t-25.5 68zM178 840v524h123v-524l-29 -506h-65z" />
<glyph unicode="&#x22;" horiz-adv-x="759" d="M129 1159v205h111v-205l-15 -319h-82zM520 1159v205h113v-205l-15 -319h-83z" />
<glyph unicode="#" horiz-adv-x="1302" d="M102 442l17 82h219l78 355h-223l20 82h221l88 403h96l-90 -403h394l88 403h90l-88 -403h211l-19 -82h-211l-78 -355h215l-18 -82h-213l-98 -442h-90l96 442h-391l-97 -442h-96l99 442h-220zM432 524h391l78 355h-389z" />
<glyph unicode="$" horiz-adv-x="1038" d="M106 1024q0 153 97.5 240.5t277.5 101.5v229h111v-229q169 -8 311 -76l-22 -92q-177 78 -342 78q-320 0 -320 -246q0 -47 14 -83.5t35.5 -62t66 -51.5t85 -43.5t112.5 -44.5q86 -33 128.5 -51t107 -54.5t96 -73t56 -93.5t24.5 -127q0 -146 -97 -240.5t-263 -107.5v-229 h-111v229q-89 6 -189.5 32t-174.5 62l26 88q207 -92 391 -92q140 0 222.5 66t82.5 186q0 62 -21 109t-68 83t-103.5 61.5t-144.5 55.5q-97 32 -165 66t-120.5 78.5t-77.5 101.5t-25 129z" />
<glyph unicode="%" horiz-adv-x="1611" d="M102 1026q0 73 19 136.5t55.5 113.5t96 79t135.5 29t135.5 -29t96 -79t55 -113.5t18.5 -136.5t-18.5 -136.5t-55 -113.5t-96 -79t-135.5 -29t-135.5 29t-96 79t-55.5 113.5t-19 136.5zM197 1026q0 -127 54.5 -205t156.5 -78q101 0 154.5 78t53.5 205q0 126 -53.5 203.5 t-154.5 77.5q-102 0 -156.5 -77.5t-54.5 -203.5zM426 0l670 1364h102l-670 -1364h-102zM911 338q0 73 19 136.5t55.5 113.5t96 79t135.5 29t135.5 -29t96 -79t55 -113.5t18.5 -136.5t-18.5 -136.5t-55 -113.5t-96 -79t-135.5 -29t-135.5 29t-96 79t-55.5 113.5t-19 136.5z M1006 338q0 -126 54.5 -203.5t156.5 -77.5t155 77t53 204t-53 205t-155 78t-156.5 -78t-54.5 -205z" />
<glyph unicode="&#x26;" horiz-adv-x="1275" d="M109 336q0 60 17 113t39 89.5t65.5 78t73.5 64t87 62.5q-42 48 -66 78.5t-54.5 78t-45 95.5t-14.5 99q0 135 89.5 212.5t246.5 77.5q124 0 205.5 -67.5t81.5 -179.5q0 -51 -17 -99t-39 -82t-69 -78.5t-78.5 -70t-95.5 -74.5l376 -430q120 170 172 410l93 -21 q-59 -273 -201 -459l205 -233h-131l-140 158q-178 -178 -411 -178q-171 0 -280 98t-109 258zM217 342q0 -128 77 -201t218 -73q189 0 336 157l-395 449q-51 -36 -75.5 -55t-61.5 -53.5t-54.5 -63t-31 -70.5t-13.5 -90zM315 1096q0 -34 11 -69.5t23 -60.5t39.5 -61t40.5 -51 t46 -51q65 45 102 75t77.5 71.5t58.5 85.5t18 95q0 76 -53 121t-137 45q-105 0 -165.5 -49.5t-60.5 -150.5z" />
<glyph unicode="'" horiz-adv-x="368" d="M129 1159v205h111v-205l-15 -319h-82z" />
<glyph unicode="(" horiz-adv-x="587" d="M133 602q0 253 71 467t228 463l84 -55q-139 -234 -203.5 -439t-64.5 -436q0 -230 64.5 -435t203.5 -439l-84 -56q-157 249 -228 463t-71 467z" />
<glyph unicode=")" horiz-adv-x="587" d="M72 -272q138 235 203 440t65 434t-65 434.5t-203 440.5l84 55q157 -251 228 -465t71 -465t-71 -465t-228 -465z" />
<glyph unicode="*" horiz-adv-x="831" d="M94 881l287 137l-287 135l51 88l250 -190l-30 313h102l-33 -313l252 190l51 -88l-286 -135l286 -137l-51 -86l-252 190l33 -313h-102l30 313l-250 -190z" />
<glyph unicode="+" horiz-adv-x="1130" d="M117 614v95h395v424h106v-424h396v-95h-396v-424h-106v424h-395z" />
<glyph unicode="," horiz-adv-x="444" d="M61 -274l121 467h137l-169 -467h-89z" />
<glyph unicode="-" horiz-adv-x="749" d="M135 545v96h479v-96h-479z" />
<glyph unicode="." horiz-adv-x="495" d="M154 82q0 41 25.5 67.5t68.5 26.5t68.5 -26.5t25.5 -67.5q0 -42 -25 -68t-69 -26t-69 26t-25 68z" />
<glyph unicode="/" horiz-adv-x="886" d="M113 -205l559 1589h112l-559 -1589h-112z" />
<glyph unicode="0" horiz-adv-x="1214" d="M113 682q0 154 29 280t87.5 221.5t154 148t222.5 52.5t223.5 -52.5t155.5 -148t88 -221.5t29 -280t-29 -280t-88 -221.5t-155.5 -148t-223.5 -52.5t-222.5 52.5t-154 148t-87.5 221.5t-29 280zM227 682q0 -135 21 -243t65 -191.5t118.5 -128.5t174.5 -45q101 0 175.5 45 t119 128.5t65.5 191.5t21 243t-21 243t-65.5 191.5t-119 128.5t-175.5 45q-100 0 -174.5 -45t-118.5 -128.5t-65 -191.5t-21 -243z" />
<glyph unicode="1" horiz-adv-x="665" d="M37 1294l340 70h104v-1364h-114v1260l-314 -62z" />
<glyph unicode="2" horiz-adv-x="1081" d="M109 0v78q0 95 20 169.5t47.5 125t91 104.5t114.5 88t153 96q1 1 2 1q74 45 116.5 73.5t88.5 66.5t69 71t38 76.5t15 94.5q0 246 -327 246q-165 0 -336 -82l-29 92q176 84 379 84t315.5 -88.5t112.5 -248.5q0 -47 -10.5 -89.5t-26 -76.5t-45 -68.5t-56 -60t-70 -57 t-77 -53t-86.5 -54.5q-59 -36 -89.5 -54.5t-76 -49t-67.5 -50t-52 -49t-44 -55.5t-29 -60t-20 -71.5t-5 -81.5v-23h738v-94h-854z" />
<glyph unicode="3" horiz-adv-x="1028" d="M88 63l27 89q194 -78 348 -78q161 0 250.5 78t89.5 213q0 130 -99.5 208t-265.5 78h-205v94h199q161 0 253.5 81.5t92.5 213.5q0 113 -80 181.5t-225 68.5q-149 0 -313 -80l-29 88q172 86 354 86q188 0 299 -87t111 -244q0 -122 -73.5 -218.5t-203.5 -134.5 q141 -33 220.5 -118.5t79.5 -216.5q0 -179 -123 -282t-328 -103q-185 0 -379 83z" />
<glyph unicode="4" horiz-adv-x="1118" d="M76 375v90l686 899h112v-897h189v-92h-189v-375h-110v375h-688zM197 467h567v760z" />
<glyph unicode="5" horiz-adv-x="1116" d="M133 80l29 84q204 -90 368 -90q179 0 274 93.5t95 248.5q0 154 -86 245t-242 91q-89 0 -160.5 -26.5t-142.5 -74.5l-98 33v680h778v-94h-665v-512q136 88 313 88q194 0 307 -119t113 -309q0 -90 -31 -169t-90.5 -139t-153.5 -95t-211 -35q-95 0 -205.5 28.5t-191.5 71.5z " />
<glyph unicode="6" horiz-adv-x="1128" d="M119 578q0 143 15.5 259t54 220.5t100 174.5t158 111t223.5 41q182 0 319 -65l-24 -92q-145 65 -289 65q-104 0 -182 -34t-127 -93t-80 -148.5t-43.5 -188t-14.5 -224.5q44 111 148 175.5t250 64.5q189 0 299 -113.5t110 -300.5q0 -89 -30 -170t-84.5 -143.5 t-139.5 -99.5t-188 -37q-222 0 -348.5 155.5t-126.5 442.5zM242 436q0 -70 21.5 -134t63 -116.5t111 -84t156.5 -31.5q108 0 185 51.5t112 130t35 172.5q0 149 -84.5 238.5t-233.5 89.5q-156 0 -261 -91.5t-105 -224.5z" />
<glyph unicode="7" horiz-adv-x="937" d="M76 1270v94h813v-94l-574 -1270h-118l579 1270h-700z" />
<glyph unicode="8" horiz-adv-x="1146" d="M115 369q0 124 73.5 214t202.5 130q-108 45 -167.5 131t-59.5 194q0 155 112 250.5t297 95.5t296.5 -95.5t111.5 -250.5q0 -108 -59 -194t-168 -131q131 -40 204.5 -129.5t73.5 -214.5q0 -78 -30 -148t-86.5 -124t-145 -85.5t-197.5 -31.5t-197 31.5t-144.5 85.5 t-86.5 123.5t-30 148.5zM225 373q0 -136 95.5 -219.5t252.5 -83.5t252 83.5t95 219.5q0 126 -94.5 207.5t-252.5 81.5t-253 -81.5t-95 -207.5zM274 1030q0 -118 78.5 -199t220.5 -81t220.5 81t78.5 199t-82.5 191t-216.5 73q-135 0 -217 -72.5t-82 -191.5z" />
<glyph unicode="9" horiz-adv-x="1128" d="M92 934q0 89 29.5 170t84 143.5t140 99.5t189.5 37q228 0 351.5 -154.5t123.5 -443.5q0 -143 -15.5 -259t-54 -220.5t-99.5 -174.5t-157.5 -111t-222.5 -41q-181 0 -322 65l25 92q149 -65 291 -65q104 0 182 34.5t127 93t79.5 148.5t43 188t14.5 224 q-45 -111 -149 -175.5t-250 -64.5q-189 0 -299.5 114t-110.5 300zM203 940q0 -148 85 -238t232 -90q156 0 261.5 91.5t105.5 224.5q0 70 -21.5 134t-63 116.5t-110 84t-155.5 31.5q-109 0 -186.5 -51t-112.5 -129.5t-35 -173.5z" />
<glyph unicode=":" horiz-adv-x="479" d="M145 82q0 41 26 67.5t69 26.5t68.5 -26.5t25.5 -67.5q0 -42 -25 -68t-69 -26t-69.5 26t-25.5 68zM145 688q0 42 25.5 68t69.5 26t69 -26t25 -68q0 -41 -25.5 -67.5t-68.5 -26.5t-69 26.5t-26 67.5z" />
<glyph unicode=";" horiz-adv-x="493" d="M55 -274l121 467h137l-170 -467h-88zM158 688q0 41 26.5 68.5t69.5 27.5t69.5 -27.5t26.5 -68.5q0 -42 -26 -69t-70 -27t-70 27t-26 69z" />
<glyph unicode="&#x3c;" horiz-adv-x="1107" d="M100 618v87l897 428v-107l-776 -364l776 -365v-107z" />
<glyph unicode="=" horiz-adv-x="1130" d="M117 397v95h897v-95h-897zM117 831v95h897v-95h-897z" />
<glyph unicode="&#x3e;" horiz-adv-x="1107" d="M111 190v107l776 365l-776 364v107l897 -428v-87z" />
<glyph unicode="?" horiz-adv-x="886" d="M113 1317q141 67 313 67q169 0 264.5 -77t95.5 -222q0 -60 -14.5 -109t-50 -95.5t-69.5 -80t-97 -87.5q-89 -75 -118 -139.5t-29 -184.5v-57h-105v67q0 101 18 166.5t52.5 111t103.5 105.5q53 45 82 72.5t58.5 65t42 76t12.5 85.5q0 102 -68 155.5t-188 53.5 q-149 0 -281 -61zM260 82q0 41 25.5 67.5t70.5 26.5q43 0 69 -26.5t26 -67.5q0 -42 -25.5 -68t-69.5 -26q-45 0 -70.5 26t-25.5 68z" />
<glyph unicode="@" horiz-adv-x="1585" d="M102 532q0 233 100 411.5t270.5 272t383.5 93.5q143 0 263 -44t201.5 -120.5t127 -181.5t45.5 -226q0 -197 -95.5 -327.5t-256.5 -130.5q-109 0 -165 61.5t-56 161.5q-40 -102 -104.5 -162.5t-145.5 -60.5q-76 0 -113 58.5t-37 145.5q0 89 21 166t62.5 137t110 94.5 t156.5 34.5q112 0 189 -36l-53 -310q-7 -44 -7 -63q0 -71 38.5 -112.5t113.5 -41.5q111 0 181.5 108.5t70.5 274.5q0 220 -154 358t-397 138q-133 0 -252 -48t-209.5 -135t-144 -221t-53.5 -295q0 -284 163.5 -445t452.5 -161q243 0 491 119l27 -74q-110 -57 -252.5 -90 t-275.5 -33q-163 0 -295 50.5t-220 141t-135 216.5t-47 276zM614 489q0 -63 17.5 -97t64.5 -34q86 0 150.5 108.5t91.5 266.5l16 90q-43 15 -86 15q-84 0 -143 -51t-85 -128t-26 -170z" />
<glyph unicode="A" horiz-adv-x="1247" d="M47 0l514 1364h127l512 -1364h-117l-143 389h-635l-141 -389h-117zM342 489h563l-280 781z" />
<glyph unicode="B" horiz-adv-x="1220" d="M174 0v1364h535q183 0 280.5 -88.5t97.5 -239.5q0 -118 -67 -208t-193 -132q136 -22 218.5 -107.5t82.5 -219.5q0 -167 -118 -268t-312 -101h-524zM287 94h405q157 0 239.5 77t82.5 202q0 126 -88 198t-256 72h-383v-549zM287 737h377q142 0 225.5 82t83.5 205 q0 112 -74 179t-207 67h-405v-533z" />
<glyph unicode="C" horiz-adv-x="1216" d="M102 682q0 320 181 513.5t495 193.5q99 0 195.5 -18t161.5 -46l-19 -96q-155 57 -321 57q-268 0 -422 -162t-154 -442t154 -442t422 -162q166 0 321 57l19 -96q-65 -28 -161.5 -46t-195.5 -18q-314 0 -495 193.5t-181 513.5z" />
<glyph unicode="D" horiz-adv-x="1366" d="M174 0v1364h469q134 0 251 -50.5t201.5 -139t132.5 -216t48 -276.5t-48 -276.5t-132.5 -216t-201.5 -139t-251 -50.5h-469zM293 102h346q106 0 200.5 40.5t165.5 114t112.5 183.5t41.5 242t-41.5 242t-113 183.5t-166 114t-199.5 40.5h-346v-1160z" />
<glyph unicode="E" horiz-adv-x="1126" d="M174 0v1364h850v-100h-733v-506h684v-101h-684v-557h733v-100h-850z" />
<glyph unicode="F" horiz-adv-x="1073" d="M174 0v1364h842v-100h-725v-555h676v-101h-676v-608h-117z" />
<glyph unicode="G" horiz-adv-x="1327" d="M102 680q0 321 184 515t511 194q233 0 401 -68l-18 -98q-179 63 -375 63q-274 0 -430 -161.5t-156 -444.5q0 -282 151.5 -444t424.5 -162q150 0 282 32v486h113v-561q-73 -25 -182 -40.5t-215 -15.5q-163 0 -294.5 52.5t-218 146.5t-132.5 223t-46 283z" />
<glyph unicode="H" horiz-adv-x="1357" d="M174 0v1364h117v-612h774v612h119v-1364h-119v647h-774v-647h-117z" />
<glyph unicode="I" horiz-adv-x="485" d="M184 0v1364h117v-1364h-117z" />
<glyph unicode="J" horiz-adv-x="739" d="M27 10l16 94q79 -24 178 -24q125 0 178.5 64t53.5 188v1032h116v-1030q0 -167 -82.5 -260.5t-250.5 -93.5q-114 0 -209 30z" />
<glyph unicode="K" horiz-adv-x="1155" d="M174 0v1364h117v-637l665 637h152l-702 -662l710 -702h-153l-672 678v-678h-117z" />
<glyph unicode="L" horiz-adv-x="1024" d="M174 0v1364h117v-1264h684v-100h-801z" />
<glyph unicode="M" horiz-adv-x="1589" d="M170 0v1364h119l506 -1094l505 1094h119v-1364h-112v1147l-451 -975h-125l-450 975v-1147h-111z" />
<glyph unicode="N" horiz-adv-x="1396" d="M174 0v1364h113l823 -1188v1188h113v-1364h-115l-821 1188v-1188h-113z" />
<glyph unicode="O" d="M102 682q0 118 23 222.5t71.5 193.5t119 153.5t170 101t219.5 36.5q121 0 221 -36.5t170 -101t118.5 -153.5t71.5 -193.5t23 -222.5t-23 -222.5t-71.5 -193.5t-118.5 -153.5t-170 -101t-221 -36.5q-120 0 -219.5 36.5t-170 101t-119 153.5t-71.5 193.5t-23 222.5z M219 682q0 -276 125 -441t361 -165q159 0 269.5 78t163 212.5t52.5 315.5t-52.5 315.5t-163 212.5t-269.5 78q-236 0 -361 -165t-125 -441z" />
<glyph unicode="P" horiz-adv-x="1175" d="M174 0v1364h514q102 0 182.5 -31.5t131.5 -86t77.5 -125t26.5 -150.5q0 -79 -27.5 -149.5t-78.5 -125t-131.5 -86.5t-180.5 -32h-397v-578h-117zM291 676h387q147 0 228 79.5t81 215.5t-82 216.5t-229 80.5h-385v-592z" />
<glyph unicode="Q" d="M102 682q0 118 23 222.5t71.5 193.5t119 153.5t170 101t219.5 36.5q121 0 221 -36.5t170 -101t118.5 -153.5t71.5 -193.5t23 -222.5q0 -193 -62.5 -349t-185.5 -249l151 -244l-84 -49l-153 242q-122 -58 -270 -58q-120 0 -219.5 36.5t-170 101t-119 153.5t-71.5 193.5 t-23 222.5zM219 682q0 -276 125 -441t361 -165q127 0 219 47l-107 182l78 49l109 -178q92 77 139 207t47 299q0 181 -52.5 315.5t-163 212.5t-269.5 78q-236 0 -361 -165t-125 -441z" />
<glyph unicode="R" horiz-adv-x="1294" d="M174 0v1364h539q205 0 313.5 -107t108.5 -276q0 -139 -88.5 -245.5t-241.5 -133.5l399 -602h-133l-391 594h-389v-594h-117zM291 690h409q148 0 232 80t84 211q0 135 -82 211t-234 76h-409v-578z" />
<glyph unicode="S" horiz-adv-x="1128" d="M96 1032q0 178 124.5 267.5t354.5 89.5t420 -89l-22 -96q-202 88 -398 88q-179 0 -270.5 -59t-91.5 -195q0 -61 21 -105t71 -78t111.5 -58t163.5 -54q94 -27 156.5 -49.5t126 -56.5t100 -73t59 -95t22.5 -127q0 -171 -127 -269t-346 -98q-225 0 -471 101l29 96 q230 -100 442 -100q163 0 260 67t97 195q0 130 -88.5 194t-302.5 119q-235 60 -338 153t-103 232z" />
<glyph unicode="T" horiz-adv-x="1056" d="M41 1264v100h973v-100h-426v-1264h-119v1264h-428z" />
<glyph unicode="U" horiz-adv-x="1368" d="M170 463v901h117v-913q0 -174 105 -274.5t292 -100.5q186 0 290.5 100.5t104.5 274.5v913h119v-901q0 -98 -32 -184.5t-93.5 -155t-162 -108.5t-226.5 -40t-226.5 40t-162 108.5t-93.5 155t-32 184.5z" />
<glyph unicode="V" horiz-adv-x="1140" d="M27 1364h118l426 -1243l424 1243h119l-477 -1364h-133z" />
<glyph unicode="W" horiz-adv-x="1714" d="M20 1364h115l318 -1188l340 1188h129l340 -1188l317 1188h115l-379 -1364h-109l-348 1253l-350 -1253h-109z" />
<glyph unicode="X" horiz-adv-x="1196" d="M68 0l467 690l-455 674h123l393 -590l395 590h125l-459 -676l469 -688h-122l-406 604l-405 -604h-125z" />
<glyph unicode="Y" horiz-adv-x="1110" d="M39 1364h123l393 -698l393 698h123l-457 -801v-563h-116v563z" />
<glyph unicode="Z" horiz-adv-x="1163" d="M117 0v102l798 1162h-772v100h897v-102l-798 -1162h815v-100h-940z" />
<glyph unicode="[" horiz-adv-x="575" d="M184 -307v1818h332v-98h-217v-1622h217v-98h-332z" />
<glyph unicode="\" horiz-adv-x="886" d="M102 1384h113l559 -1589h-112z" />
<glyph unicode="]" horiz-adv-x="575" d="M59 -209h217v1622h-217v98h332v-1818h-332v98z" />
<glyph unicode="^" horiz-adv-x="954" d="M98 690l330 674h98l328 -674h-104l-273 576l-272 -576h-107z" />
<glyph unicode="_" horiz-adv-x="802" d="M-2 -174h807v-62h-807v62z" />
<glyph unicode="`" horiz-adv-x="622" d="M178 1419h133l140 -311h-99z" />
<glyph unicode="a" horiz-adv-x="1019" d="M106 262q0 142 91 217.5t247 75.5h312v115q0 115 -63.5 168t-194.5 53q-156 0 -303 -66l-21 93q144 69 336 69q360 0 360 -305v-682h-110v182q-106 -202 -350 -202q-141 0 -222.5 75t-81.5 207zM219 260q0 -97 51.5 -147t163.5 -50q140 0 231 95t91 217v94h-299 q-125 0 -181.5 -52t-56.5 -157z" />
<glyph unicode="b" horiz-adv-x="1099" d="M164 0v1364h115v-606q48 109 134.5 169t204.5 60q99 0 175 -39t121.5 -108t68.5 -159t23 -198q0 -107 -23 -196.5t-68.5 -159t-121.5 -108.5t-175 -39q-118 0 -207 60.5t-137 168.5v-209h-110zM279 483q0 -109 34 -200t108 -150t177 -59q77 0 134.5 30.5t92 87t51.5 129 t17 162.5q0 188 -72 300t-223 112q-103 0 -177 -59.5t-108 -151t-34 -201.5z" />
<glyph unicode="c" horiz-adv-x="882" d="M92 483q0 242 116.5 373t332.5 131q169 0 268 -55l-21 -88q-106 49 -235 49q-179 0 -262.5 -109t-83.5 -301q0 -191 83.5 -299t262.5 -108q125 0 235 47l21 -88q-48 -25 -120.5 -40t-147.5 -15q-216 0 -332.5 131.5t-116.5 371.5z" />
<glyph unicode="d" horiz-adv-x="1099" d="M92 483q0 108 22.5 197.5t68.5 159t122 108.5t176 39q118 0 205 -60t135 -169v606h115v-1364h-111v209q-51 -108 -139 -168.5t-207 -60.5q-98 0 -173.5 39t-121.5 108.5t-69 159t-23 196.5zM207 483q0 -90 17 -162.5t51.5 -129t92 -87t134.5 -30.5q102 0 176 59 t108.5 150t34.5 200q0 110 -34.5 201.5t-108.5 151t-176 59.5q-151 0 -223 -112t-72 -300z" />
<glyph unicode="e" horiz-adv-x="976" d="M92 483q0 236 109.5 370t320.5 134q99 0 172 -34t115 -96.5t62 -140.5t20 -175v-92h-686q6 -184 89.5 -282.5t266.5 -98.5q156 0 299 61l19 -80q-138 -69 -330 -69q-120 0 -209.5 37t-142.5 105t-79 158t-26 203zM207 535h575v26q0 344 -262 344q-295 0 -313 -370z" />
<glyph unicode="f" horiz-adv-x="593" d="M61 874v93h144v125q0 149 63.5 220.5t194.5 71.5q71 0 133 -20l-8 -88q-46 16 -109 16q-85 0 -122.5 -47t-37.5 -155v-123h220v-93h-220v-874h-114v874h-144z" />
<glyph unicode="g" horiz-adv-x="1099" d="M92 502q0 97 22.5 181t68 153.5t124 110t180.5 40.5q115 0 202.5 -57t133.5 -168v205h113v-922q0 -73 -12.5 -134t-43 -117t-78 -94.5t-122.5 -61.5t-172 -23q-167 0 -324 63l19 89q167 -62 305 -62q90 0 153 25.5t97 73.5t48.5 106t14.5 133v201q-46 -106 -135 -167 t-199 -61q-83 0 -150.5 27t-112 72.5t-75 108.5t-44 132t-13.5 146zM205 502q0 -176 79 -284.5t228 -108.5q144 0 226.5 114.5t82.5 278.5q0 105 -34.5 193.5t-106 145t-168.5 56.5q-148 0 -227.5 -110.5t-79.5 -284.5z" />
<glyph unicode="h" horiz-adv-x="1085" d="M164 0v1364h115v-616q45 113 132 176t207 63q159 0 236.5 -85.5t77.5 -242.5v-659h-115v643q0 246 -227 246q-130 0 -220.5 -103t-90.5 -274v-512h-115z" />
<glyph unicode="i" horiz-adv-x="442" d="M131 1225q0 38 24.5 64t65.5 26q40 0 64 -26t24 -64q0 -37 -24 -63.5t-64 -26.5q-41 0 -65.5 26.5t-24.5 63.5zM164 0v967h115v-967h-115z" />
<glyph unicode="j" horiz-adv-x="442" d="M-70 -367l9 93q49 -15 98 -15q70 0 98.5 37.5t28.5 108.5v1110h115v-1117q0 -235 -226 -235q-71 0 -123 18zM131 1225q0 38 24.5 64t65.5 26q40 0 64 -26t24 -64q0 -37 -24 -63.5t-64 -26.5q-41 0 -65.5 26.5t-24.5 63.5z" />
<glyph unicode="k" horiz-adv-x="925" d="M164 0v1364h115v-842l454 445h139l-481 -467l500 -500h-139l-473 477v-477h-115z" />
<glyph unicode="l" horiz-adv-x="536" d="M160 219v1145h114v-1147q0 -67 25.5 -101t85.5 -34q39 0 84 10l4 -90q-51 -14 -119 -14q-105 0 -149.5 60.5t-44.5 170.5z" />
<glyph unicode="m" horiz-adv-x="1677" d="M164 0v967h110v-222q41 114 122 178t196 64q256 0 297 -239q37 109 121 174t204 65q157 0 234.5 -87t77.5 -241v-659h-115v643q0 246 -227 246q-119 0 -201 -98t-82 -261v-530h-115v643q0 121 -56.5 183.5t-168.5 62.5q-123 0 -202.5 -103t-79.5 -274v-512h-115z" />
<glyph unicode="n" horiz-adv-x="1085" d="M164 0v967h110v-222q46 114 133.5 178t210.5 64q159 0 236.5 -85.5t77.5 -242.5v-659h-115v643q0 246 -227 246q-130 0 -220.5 -103t-90.5 -274v-512h-115z" />
<glyph unicode="o" horiz-adv-x="1032" d="M92 483q0 147 45.5 258.5t143 178.5t235.5 67t235.5 -67t143 -178.5t45.5 -258.5q0 -145 -46 -257t-143.5 -179t-234.5 -67t-234.5 67t-143.5 179t-46 257zM207 483q0 -191 78 -300t231 -109t231 109t78 300q0 192 -78 302t-231 110t-231 -110t-78 -302z" />
<glyph unicode="p" horiz-adv-x="1099" d="M164 -365v1332h110v-209q48 109 136.5 169t207.5 60q99 0 175 -39t121.5 -108t68.5 -159t23 -198q0 -107 -23 -196.5t-68.5 -159t-121.5 -108.5t-175 -39q-117 0 -204 60.5t-135 168.5v-574h-115zM279 483q0 -109 34 -200t108 -150t177 -59q77 0 134.5 30.5t92 87 t51.5 129t17 162.5q0 188 -72 300t-223 112q-103 0 -177 -59.5t-108 -151t-34 -201.5z" />
<glyph unicode="q" horiz-adv-x="1099" d="M92 483q0 108 23 198t69 159t121.5 108t173.5 39q119 0 207.5 -60t138.5 -169v209h111v-1332h-115v574q-48 -108 -135 -168.5t-205 -60.5q-100 0 -176 39t-122 108.5t-68.5 159t-22.5 196.5zM207 483q0 -90 17 -162.5t51.5 -129t92 -87t134.5 -30.5q102 0 176 59 t108.5 150t34.5 200q0 110 -34.5 201.5t-108.5 151t-176 59.5q-151 0 -223 -112t-72 -300z" />
<glyph unicode="r" horiz-adv-x="665" d="M164 0v967h115v-232q30 109 104 176.5t192 67.5q51 0 89 -10v-101q-47 6 -82 6q-96 0 -166 -52.5t-102.5 -133.5t-32.5 -178v-510h-117z" />
<glyph unicode="s" horiz-adv-x="849" d="M86 723q0 133 89.5 198.5t256.5 65.5q174 0 305 -59l-22 -88q-135 59 -283 59q-233 0 -233 -164q0 -29 6 -50.5t22.5 -39.5t32.5 -30t51 -25.5t61 -22t79 -24.5q67 -20 111 -36.5t88.5 -40.5t69.5 -51.5t40.5 -67t15.5 -89.5q0 -132 -90 -205t-254 -73q-172 0 -344 73 l29 86q162 -71 315 -71q113 0 172.5 46.5t59.5 131.5q0 76 -55 117.5t-189 76.5q-181 50 -257.5 110.5t-76.5 172.5z" />
<glyph unicode="t" horiz-adv-x="665" d="M82 870v97h139v258h117v-258h248v-97h-248v-657q0 -70 29 -102.5t104 -32.5q67 0 113 18l6 -90q-55 -22 -146 -22q-117 0 -170 57t-53 166v663h-139z" />
<glyph unicode="u" horiz-adv-x="1075" d="M154 307v660h114v-643q0 -244 219 -244q129 0 219.5 103t90.5 272v512h114v-967h-110v221q-46 -112 -134.5 -176.5t-209.5 -64.5q-153 0 -228 86t-75 241z" />
<glyph unicode="v" horiz-adv-x="864" d="M20 967h119l293 -850l293 850h121l-350 -967h-125z" />
<glyph unicode="w" horiz-adv-x="1372" d="M23 967h112l234 -824l256 824h123l256 -824l233 824h113l-289 -967h-111l-262 862l-266 -862h-111z" />
<glyph unicode="x" horiz-adv-x="901" d="M53 0l338 500l-315 467h119l256 -385l256 385h118l-315 -465l340 -502h-119l-280 420l-281 -420h-117z" />
<glyph unicode="y" horiz-adv-x="845" d="M20 967h119l287 -844l281 844h120l-473 -1332h-110l125 363z" />
<glyph unicode="z" horiz-adv-x="901" d="M98 0v94l574 780h-543v93h672v-93l-576 -780h590v-94h-717z" />
<glyph unicode="{" horiz-adv-x="598" d="M16 555v94h33q86 0 127 45.5t41 122.5v455q0 239 234 239h102v-98h-84q-72 0 -104.5 -36.5t-32.5 -112.5v-433q0 -96 -40.5 -152.5t-129.5 -76.5q89 -20 129.5 -76.5t40.5 -152.5v-432q0 -76 32.5 -113t104.5 -37h84v-98h-102q-234 0 -234 239v455q0 77 -41 122.5 t-127 45.5h-33z" />
<glyph unicode="|" horiz-adv-x="485" d="M195 -512v2048h98v-2048h-98z" />
<glyph unicode="}" horiz-adv-x="598" d="M43 -209h84q73 0 106 37t33 113v432q0 96 40.5 152.5t129.5 76.5q-89 20 -129.5 76.5t-40.5 152.5v433q0 76 -33 112.5t-106 36.5h-84v98h102q114 0 175 -59.5t61 -179.5v-455q0 -77 40 -122.5t128 -45.5h31v-94h-31q-88 0 -128 -45.5t-40 -122.5v-455q0 -120 -61 -179.5 t-175 -59.5h-102v98z" />
<glyph unicode="~" horiz-adv-x="1091" d="M113 561q41 127 93 179.5t148 52.5q50 0 111.5 -24.5t109 -53.5t99.5 -53.5t84 -24.5q16 0 30 4.5t24 9t20.5 17t16 19.5t14 25.5t11 25.5t11 30t10.5 29l94 -29q-16 -52 -34 -90.5t-44.5 -73.5t-64 -53.5t-84.5 -18.5q-42 0 -100.5 24.5t-106.5 53.5t-103.5 53.5 t-93.5 24.5q-16 0 -29.5 -2t-25 -8.5t-20 -11t-17.5 -16.5t-14 -18.5t-12.5 -23.5t-10.5 -24t-11 -28t-11 -28z" />
<glyph unicode="&#xa1;" horiz-adv-x="479" d="M145 893q0 42 25.5 68t69.5 26t69 -26t25 -68q0 -41 -25.5 -67.5t-68.5 -26.5t-69 26.5t-26 67.5zM178 135l29 506h65l29 -506v-500h-123v500z" />
<glyph unicode="&#xa2;" horiz-adv-x="935" d="M109 684q0 204 97.5 323t278.5 136v229h115v-227q128 -9 225 -53l-20 -88q-123 49 -244 49q-174 0 -257 -98t-83 -271t83 -271t257 -98q118 0 244 50l20 -89q-89 -43 -225 -53v-231h-115v231q-182 19 -279 138t-97 323z" />
<glyph unicode="&#xa3;" horiz-adv-x="1087" d="M109 0v90q119 103 179 220t60 270v16h-229v94h229v309q0 200 93.5 292.5t279.5 92.5q164 0 287 -55l-21 -92q-132 51 -260 51q-135 0 -199.5 -68.5t-64.5 -218.5v-311h385v-94h-385v-16q0 -278 -217 -484h719v-96h-856z" />
<glyph unicode="&#xa4;" horiz-adv-x="1150" d="M96 205l172 172q-110 119 -110 285q0 163 110 282l-172 174l68 66l178 -178q99 71 233 71q135 0 234 -71l178 178l68 -66l-172 -174q110 -119 110 -282q0 -166 -110 -285l172 -172l-68 -66l-178 176q-101 -69 -234 -69q-132 0 -233 69l-178 -176zM258 662 q0 -138 87.5 -235t229.5 -97t230 97t88 235t-88 234.5t-230 96.5t-229.5 -96.5t-87.5 -234.5z" />
<glyph unicode="&#xa5;" horiz-adv-x="1028" d="M84 1364h117l313 -719l313 719h117l-258 -565h223v-88h-262l-76 -166v-101h338v-84h-338v-360h-114v360h-338v84h338v101l-76 166h-262v88h221z" />
<glyph unicode="&#xa6;" horiz-adv-x="485" d="M195 295h98v-807h-98v807zM195 729v807h98v-807h-98z" />
<glyph unicode="&#xa7;" horiz-adv-x="1058" d="M104 -295l29 84q183 -86 375 -86q141 0 222 53.5t81 159.5q0 29 -8 53.5t-19 43.5t-36.5 39t-46.5 33.5t-65 34t-75 33t-92 37.5q-176 70 -259 150t-83 209q0 103 57 174.5t152 128.5q-86 49 -129 110t-43 146q0 133 98 204.5t297 71.5q194 0 354 -69l-20 -90 q-160 69 -332 69q-144 0 -215.5 -42.5t-71.5 -141.5q0 -47 14 -80.5t60 -65t74.5 -45.5t114.5 -52q16 -7 24 -11q168 -74 230 -113q154 -97 164 -230q1 -10 1 -21q0 -95 -59.5 -179.5t-146.5 -138.5q84 -49 128 -109t44 -145q0 -139 -112 -222t-298 -83q-223 0 -408 90z M240 557q0 -52 13.5 -89.5t48.5 -69.5t82.5 -57t127.5 -58q22 -10 75 -32t81 -36q76 47 126 114.5t50 151.5q0 44 -16 80.5t-43 63t-69.5 51t-87.5 44.5t-104 45q-12 5 -18 7l-88 37q-37 -25 -64 -46.5t-55.5 -53t-43.5 -70t-15 -82.5z" />
<glyph unicode="&#xa8;" horiz-adv-x="882" d="M174 1241q0 37 24.5 61.5t61.5 24.5q39 0 63.5 -24.5t24.5 -61.5t-24.5 -62.5t-63.5 -25.5q-37 0 -61.5 25.5t-24.5 62.5zM535 1241q0 37 25 61.5t63 24.5t63 -24.5t25 -61.5t-25 -62.5t-63 -25.5t-63 25.5t-25 62.5z" />
<glyph unicode="&#xa9;" horiz-adv-x="1595" d="M92 682q0 145 51.5 274.5t142.5 225t224.5 151.5t288.5 56t288.5 -56t224 -151.5t142 -225t51.5 -274.5q0 -193 -87 -354t-249.5 -257t-369.5 -96q-155 0 -288.5 56t-224.5 152t-142.5 225.5t-51.5 273.5zM156 682q0 -178 80 -325.5t228 -235.5t335 -88q140 0 260.5 51.5 t203.5 139.5t130 206.5t47 251.5t-47 251.5t-130 206.5t-203.5 139.5t-260.5 51.5q-187 0 -335 -88t-228 -235.5t-80 -325.5zM455 682q0 179 104 290t289 111q129 0 203 -41l-17 -69q-87 33 -178 33q-150 0 -229.5 -86.5t-79.5 -237.5t79.5 -237.5t229.5 -86.5q91 0 178 33 l17 -69q-74 -41 -203 -41q-185 0 -289 111t-104 290z" />
<glyph unicode="&#xaa;" horiz-adv-x="759" d="M113 524v74h536v-74h-536zM113 907q0 193 223 193h203v71q0 74 -40.5 107t-125.5 33q-103 0 -201 -45l-14 71q86 47 223 47q244 0 244 -204v-449h-80v125q-26 -60 -87 -98.5t-145 -38.5q-95 0 -147.5 50t-52.5 138zM195 905q0 -123 141 -123q86 0 144.5 65t58.5 152v35 h-191q-79 0 -116 -30.5t-37 -98.5z" />
<glyph unicode="&#xab;" horiz-adv-x="1107" d="M74 492l350 415h129l-350 -415l350 -416h-129zM524 492l353 415h129l-351 -415l351 -416h-129z" />
<glyph unicode="&#xac;" horiz-adv-x="1130" d="M117 614v95h897v-519h-107v424h-790z" />
<glyph unicode="&#xad;" horiz-adv-x="749" d="M135 545v96h479v-96h-479z" />
<glyph unicode="&#xae;" horiz-adv-x="1089" d="M102 948q0 187 123.5 314t319.5 127t320 -127t124 -314q0 -184 -124.5 -312t-319.5 -128t-319 128t-124 312zM158 948q0 -166 106.5 -278.5t280.5 -112.5q173 0 280 113t107 278t-107 278t-280 113q-174 0 -280.5 -112.5t-106.5 -278.5zM406 735v451h157q69 0 110.5 -34 t41.5 -95q0 -48 -26.5 -84t-74.5 -49l150 -189h-86l-137 180h-66v-180h-69zM475 971h82q41 0 64.5 22t23.5 60q0 36 -23 55.5t-63 19.5h-84v-157z" />
<glyph unicode="&#xaf;" horiz-adv-x="839" d="M166 1176v92h508v-92h-508z" />
<glyph unicode="&#xb0;" horiz-adv-x="675" d="M88 1139q0 102 67 173.5t183 71.5t183 -71.5t67 -173.5t-67 -174t-183 -72t-183 72t-67 174zM168 1139q0 -74 44 -125t126 -51t126 51t44 125q0 76 -44 128t-126 52t-126 -52t-44 -128z" />
<glyph unicode="&#xb1;" horiz-adv-x="1130" d="M117 0v92h395v410h-395v94h395v426h106v-426h396v-94h-396v-410h396v-92h-897z" />
<glyph unicode="&#xb2;" horiz-adv-x="733" d="M113 799v51q0 45 6.5 81t23.5 66t33 51.5t48.5 46.5t55.5 40t68 43q103 63 143.5 104t40.5 102q0 129 -172 129q-99 0 -192 -49l-21 72q100 51 226 51q119 0 184.5 -51t65.5 -147q0 -46 -15.5 -84t-48 -71t-64.5 -56t-83 -54q-45 -27 -59.5 -36t-48 -32t-45 -37 t-28.5 -37t-22.5 -47t-5.5 -54v-9h409v-73h-499z" />
<glyph unicode="&#xb3;" horiz-adv-x="710" d="M113 838l18 67q102 -45 199 -45q84 0 132 40.5t48 109.5t-53 108t-146 39h-112v76h110q89 0 138 40.5t49 108.5q0 61 -42.5 96t-119.5 35q-84 0 -176 -45l-23 68q90 51 213 51q113 0 175.5 -51.5t62.5 -140.5q0 -68 -39.5 -121.5t-112.5 -77.5q164 -44 164 -186 q0 -99 -70.5 -160.5t-191.5 -61.5q-109 0 -223 50z" />
<glyph unicode="&#xb4;" horiz-adv-x="622" d="M174 1108l137 311h135l-176 -311h-96z" />
<glyph unicode="&#xb5;" horiz-adv-x="1159" d="M164 -365v1332h115v-643q0 -244 219 -244q128 0 218.5 103t90.5 272v512h115v-699q0 -98 26 -146t105 -48h34v-74q-36 -12 -79 -12q-96 0 -143.5 66t-47.5 171q-49 -113 -140 -179t-214 -66q-71 0 -130.5 25t-92.5 67q39 -83 39 -211v-226h-115z" />
<glyph unicode="&#xb6;" horiz-adv-x="1069" d="M74 889q0 143 65 253t170 166t230 56h366v-1651h-98v1567h-266v-866q-216 0 -341.5 133.5t-125.5 341.5z" />
<glyph unicode="&#xb7;" horiz-adv-x="495" d="M154 559q0 41 25.5 67.5t68.5 26.5t68.5 -26.5t25.5 -67.5t-25.5 -67.5t-68.5 -26.5t-68.5 26.5t-25.5 67.5z" />
<glyph unicode="&#xb8;" horiz-adv-x="628" d="M174 -309q41 3 68 6.5t55.5 11.5t42.5 22.5t14 35.5q0 10 -2.5 18.5t-9.5 14.5t-13 11t-18.5 9t-21 7t-25 5.5t-26 4t-28.5 4t-28 3.5l41 156h76l-20 -98q178 -18 178 -127q0 -146 -277 -160z" />
<glyph unicode="&#xb9;" horiz-adv-x="477" d="M92 1538l195 39h78v-772h-89v690l-176 -33z" />
<glyph unicode="&#xba;" horiz-adv-x="788" d="M113 1051q0 151 72 242t208 91q138 0 210.5 -91t72.5 -242q0 -149 -72.5 -240.5t-210.5 -91.5q-136 0 -208 91.5t-72 240.5zM131 524v74h526v-74h-526zM199 1051q0 -121 49.5 -192t144.5 -71q97 0 147 71t50 192q0 122 -50 193t-147 71q-96 0 -145 -71t-49 -193z" />
<glyph unicode="&#xbb;" horiz-adv-x="1107" d="M104 76l349 416l-349 415h127l353 -415l-353 -416h-127zM555 76l350 416l-350 415h129l352 -415l-352 -416h-129z" />
<glyph unicode="&#xbc;" horiz-adv-x="1525" d="M113 1325l194 39h78v-772h-88v690l-176 -33zM317 0l719 1364h99l-717 -1364h-101zM836 205v69l383 500h90v-500h106v-69h-106v-205h-86v205h-387zM922 274h301v404z" />
<glyph unicode="&#xbd;" horiz-adv-x="1601" d="M113 1325l194 39h78v-772h-88v690l-176 -33zM317 0l719 1364h99l-717 -1364h-101zM979 0v51q0 53 12 96t28.5 72t52.5 60t63 49t82 51q103 63 143.5 104.5t40.5 102.5q0 129 -172 129q-99 0 -195 -49l-20 71q100 51 225 51q119 0 184.5 -51t65.5 -147q0 -46 -15 -84 t-47.5 -70.5t-64 -55.5t-82.5 -54q-38 -23 -51.5 -31t-43 -28t-40.5 -30.5t-29.5 -30.5t-25.5 -36.5t-13 -39.5t-6 -48v-8h408v-74h-500z" />
<glyph unicode="&#xbe;" horiz-adv-x="1617" d="M113 625l18 67q102 -45 199 -45q84 0 132 40.5t48 109.5t-53 108t-146 39h-112v76h110q89 0 138 40.5t49 108.5q0 61 -42.5 96t-119.5 35q-84 0 -176 -45l-23 68q90 51 213 51q113 0 175.5 -51.5t62.5 -140.5q0 -68 -39.5 -121.5t-112.5 -77.5q164 -44 164 -186 q0 -99 -70.5 -160.5t-191.5 -61.5q-109 0 -223 50zM410 0l718 1364h99l-719 -1364h-98zM926 205v69l385 500h90v-500h104v-69h-104v-205h-86v205h-389zM1014 274h301v404z" />
<glyph unicode="&#xbf;" horiz-adv-x="886" d="M113 -94q0 59 14.5 106.5t50 93.5t68.5 78t96 86q90 77 118.5 140t28.5 184v59h107v-67q0 -101 -18.5 -167t-53 -112t-104.5 -106q-46 -39 -66.5 -57.5t-51 -50.5t-43 -55t-22.5 -56t-10 -70q0 -99 67.5 -151t188.5 -52q122 0 283 66l20 -92q-143 -68 -315 -68 q-167 0 -262.5 75.5t-95.5 215.5zM449 893q0 42 25.5 68t70.5 26q44 0 69 -26t25 -68q0 -41 -25.5 -67.5t-68.5 -26.5q-45 0 -70.5 26.5t-25.5 67.5z" />
<glyph unicode="&#xc0;" horiz-adv-x="1247" d="M47 0l514 1364h127l512 -1364h-117l-143 389h-635l-141 -389h-117zM336 1767h143l180 -270h-102zM342 489h563l-280 781z" />
<glyph unicode="&#xc1;" horiz-adv-x="1247" d="M47 0l514 1364h127l512 -1364h-117l-143 389h-635l-141 -389h-117zM342 489h563l-280 781zM586 1497l180 270h143l-221 -270h-102z" />
<glyph unicode="&#xc2;" horiz-adv-x="1247" d="M47 0l514 1364h127l512 -1364h-117l-143 389h-635l-141 -389h-117zM338 1497l229 270h115l231 -270h-114l-174 209l-174 -209h-113zM342 489h563l-280 781z" />
<glyph unicode="&#xc3;" horiz-adv-x="1247" d="M47 0l514 1364h127l512 -1364h-117l-143 389h-635l-141 -389h-117zM315 1546q27 80 66 119t111 39q41 0 96 -23.5t104.5 -47t77.5 -23.5q10 0 18 1.5t15.5 6t12.5 7t11 11t8.5 11.5t8 14.5t6.5 14t6.5 16t5.5 14.5l80 -29q-26 -73 -65 -114t-101 -41q-50 0 -147 46 t-135 46q-11 0 -21 -2.5t-16.5 -4.5t-14 -10t-11 -11t-10.5 -15.5t-8.5 -15.5t-9 -19.5t-8.5 -19.5zM342 489h563l-280 781z" />
<glyph unicode="&#xc4;" horiz-adv-x="1247" d="M47 0l514 1364h127l512 -1364h-117l-143 389h-635l-141 -389h-117zM342 489h563l-280 781zM344 1628q0 37 24 61.5t62 24.5q39 0 63.5 -24.5t24.5 -61.5q0 -38 -24 -62t-64 -24q-38 0 -62 24t-24 62zM729 1628q0 37 25 61.5t63 24.5t63 -24.5t25 -61.5q0 -38 -25 -62 t-63 -24t-63 24t-25 62z" />
<glyph unicode="&#xc5;" horiz-adv-x="1247" d="M47 0l504 1343q-51 13 -78 52.5t-27 93.5q0 71 46.5 116.5t132.5 45.5q85 0 131.5 -45.5t46.5 -116.5q0 -54 -28.5 -93.5t-80.5 -52.5l506 -1343h-117l-143 389h-635l-141 -389h-117zM342 489h563l-280 781zM516 1489q0 -46 29 -73t80 -27t79.5 27t28.5 73 q0 51 -28.5 78.5t-79.5 27.5t-80 -27.5t-29 -78.5z" />
<glyph unicode="&#xc6;" horiz-adv-x="1710" d="M47 0l514 1364h1045v-100h-875l184 -506h641v-101h-604l205 -557h449v-100h-523l-143 389h-633l-143 -389h-117zM342 489h563l-280 775z" />
<glyph unicode="&#xc7;" horiz-adv-x="1216" d="M102 682q0 320 181 513.5t495 193.5q99 0 195.5 -18t161.5 -46l-19 -96q-155 57 -321 57q-268 0 -422 -162t-154 -442t154 -442t422 -162q166 0 321 57l19 -96q-65 -28 -161.5 -46t-195.5 -18h-10l-14 -73q178 -18 178 -127q0 -146 -277 -160l-6 76q41 3 68 6.5 t55.5 11.5t42.5 22.5t14 35.5q0 10 -2.5 18.5t-9.5 14.5t-13 11t-18.5 9t-21 7t-25 5.5t-26 4t-28.5 4t-28 3.5l35 136q-277 26 -433.5 215t-156.5 487z" />
<glyph unicode="&#xc8;" horiz-adv-x="1126" d="M174 0v1364h850v-100h-733v-506h684v-101h-684v-557h733v-100h-850zM367 1767h143l180 -270h-102z" />
<glyph unicode="&#xc9;" horiz-adv-x="1126" d="M174 0v1364h850v-100h-733v-506h684v-101h-684v-557h733v-100h-850zM516 1497l180 270h144l-222 -270h-102z" />
<glyph unicode="&#xca;" horiz-adv-x="1126" d="M174 0v1364h850v-100h-733v-506h684v-101h-684v-557h733v-100h-850zM317 1497l230 270h115l231 -270h-115l-174 209l-174 -209h-113z" />
<glyph unicode="&#xcb;" horiz-adv-x="1126" d="M174 0v1364h850v-100h-733v-506h684v-101h-684v-557h733v-100h-850zM328 1628q0 37 24 61.5t62 24.5q39 0 63.5 -24.5t24.5 -61.5q0 -38 -24 -62t-64 -24q-38 0 -62 24t-24 62zM713 1628q0 37 25 61.5t63 24.5t63 -24.5t25 -61.5q0 -38 -25 -62t-63 -24t-63 24t-25 62z " />
<glyph unicode="&#xcc;" horiz-adv-x="485" d="M-31 1767h144l180 -270h-103zM184 0v1364h117v-1364h-117z" />
<glyph unicode="&#xcd;" horiz-adv-x="485" d="M184 0v1364h117v-1364h-117zM195 1497l180 270h143l-221 -270h-102z" />
<glyph unicode="&#xce;" horiz-adv-x="485" d="M-43 1497l229 270h115l231 -270h-114l-174 209l-174 -209h-113zM184 0v1364h117v-1364h-117z" />
<glyph unicode="&#xcf;" horiz-adv-x="485" d="M-37 1628q0 37 24 61.5t62 24.5q39 0 63.5 -24.5t24.5 -61.5q0 -38 -24 -62t-64 -24q-38 0 -62 24t-24 62zM184 0v1364h117v-1364h-117zM348 1628q0 37 25 61.5t63 24.5t63 -24.5t25 -61.5q0 -38 -25 -62t-63 -24t-63 24t-25 62z" />
<glyph unicode="&#xd0;" horiz-adv-x="1402" d="M63 633v100h148v631h469q134 0 251 -50.5t201.5 -139t132.5 -216t48 -276.5t-48 -276.5t-132.5 -216t-201.5 -139t-251 -50.5h-469v633h-148zM330 102h346q106 0 200.5 40.5t165.5 114t112.5 183.5t41.5 242t-41.5 242t-113 183.5t-166 114t-199.5 40.5h-346v-529h428 v-100h-428v-531z" />
<glyph unicode="&#xd1;" horiz-adv-x="1396" d="M174 0v1364h113l823 -1188v1188h113v-1364h-115l-821 1188v-1188h-113zM387 1546q27 80 66 119t110 39q51 0 150 -47t129 -47q10 0 18 1.5t15.5 6t12.5 7t11 11t8.5 11.5t8 14.5t6.5 14t6.5 16t5.5 14.5l80 -29q-26 -73 -65 -114t-101 -41q-50 0 -147.5 46t-135.5 46 q-11 0 -20.5 -2.5t-16.5 -5t-14.5 -9.5t-11 -11t-9.5 -15.5t-8.5 -16t-9 -19t-8.5 -19.5z" />
<glyph unicode="&#xd2;" d="M102 682q0 118 23 222.5t71.5 193.5t119 153.5t170 101t219.5 36.5q121 0 221 -36.5t170 -101t118.5 -153.5t71.5 -193.5t23 -222.5t-23 -222.5t-71.5 -193.5t-118.5 -153.5t-170 -101t-221 -36.5q-120 0 -219.5 36.5t-170 101t-119 153.5t-71.5 193.5t-23 222.5z M219 682q0 -276 125 -441t361 -165q159 0 269.5 78t163 212.5t52.5 315.5t-52.5 315.5t-163 212.5t-269.5 78q-236 0 -361 -165t-125 -441zM446 1767h144l180 -270h-102z" />
<glyph unicode="&#xd3;" d="M102 682q0 118 23 222.5t71.5 193.5t119 153.5t170 101t219.5 36.5q121 0 221 -36.5t170 -101t118.5 -153.5t71.5 -193.5t23 -222.5t-23 -222.5t-71.5 -193.5t-118.5 -153.5t-170 -101t-221 -36.5q-120 0 -219.5 36.5t-170 101t-119 153.5t-71.5 193.5t-23 222.5z M219 682q0 -276 125 -441t361 -165q159 0 269.5 78t163 212.5t52.5 315.5t-52.5 315.5t-163 212.5t-269.5 78q-236 0 -361 -165t-125 -441zM635 1497l180 270h143l-221 -270h-102z" />
<glyph unicode="&#xd4;" d="M102 682q0 118 23 222.5t71.5 193.5t119 153.5t170 101t219.5 36.5q121 0 221 -36.5t170 -101t118.5 -153.5t71.5 -193.5t23 -222.5t-23 -222.5t-71.5 -193.5t-118.5 -153.5t-170 -101t-221 -36.5q-120 0 -219.5 36.5t-170 101t-119 153.5t-71.5 193.5t-23 222.5z M219 682q0 -276 125 -441t361 -165q159 0 269.5 78t163 212.5t52.5 315.5t-52.5 315.5t-163 212.5t-269.5 78q-236 0 -361 -165t-125 -441zM418 1497l229 270h115l231 -270h-114l-174 209l-175 -209h-112z" />
<glyph unicode="&#xd5;" d="M102 682q0 118 23 222.5t71.5 193.5t119 153.5t170 101t219.5 36.5q121 0 221 -36.5t170 -101t118.5 -153.5t71.5 -193.5t23 -222.5t-23 -222.5t-71.5 -193.5t-118.5 -153.5t-170 -101t-221 -36.5q-120 0 -219.5 36.5t-170 101t-119 153.5t-71.5 193.5t-23 222.5z M219 682q0 -276 125 -441t361 -165q159 0 269.5 78t163 212.5t52.5 315.5t-52.5 315.5t-163 212.5t-269.5 78q-236 0 -361 -165t-125 -441zM395 1546q27 80 66 119t110 39q51 0 150 -47t129 -47q10 0 18 1.5t15.5 6t12.5 7t11 11t8.5 11.5t8 14.5t6.5 14t6.5 16t5.5 14.5 l80 -29q-26 -73 -65 -114t-101 -41q-50 0 -147.5 46t-135.5 46q-11 0 -20.5 -2.5t-16.5 -5t-14.5 -9.5t-11 -11t-9.5 -15.5t-8.5 -16t-9 -19t-8.5 -19.5z" />
<glyph unicode="&#xd6;" d="M102 682q0 118 23 222.5t71.5 193.5t119 153.5t170 101t219.5 36.5q121 0 221 -36.5t170 -101t118.5 -153.5t71.5 -193.5t23 -222.5t-23 -222.5t-71.5 -193.5t-118.5 -153.5t-170 -101t-221 -36.5q-120 0 -219.5 36.5t-170 101t-119 153.5t-71.5 193.5t-23 222.5z M219 682q0 -276 125 -441t361 -165q159 0 269.5 78t163 212.5t52.5 315.5t-52.5 315.5t-163 212.5t-269.5 78q-236 0 -361 -165t-125 -441zM426 1628q0 37 24 61.5t62 24.5q39 0 63.5 -24.5t24.5 -61.5q0 -38 -24 -62t-64 -24q-38 0 -62 24t-24 62zM811 1628q0 37 25 61.5 t63 24.5t63 -24.5t25 -61.5q0 -38 -25 -62t-63 -24t-63 24t-25 62z" />
<glyph unicode="&#xd7;" horiz-adv-x="1054" d="M117 322l342 340l-342 344l67 67l342 -344l340 342l70 -70l-342 -339l344 -345l-68 -67l-344 344l-340 -342z" />
<glyph unicode="&#xd8;" d="M102 682q0 118 23 222.5t71.5 193.5t119 153.5t170 101t219.5 36.5q126 0 237 -43l80 190h88l-96 -227q145 -85 220 -251.5t75 -375.5q0 -118 -23 -222.5t-71.5 -193.5t-118.5 -153.5t-170 -101t-221 -36.5q-122 0 -234 41l-80 -188h-88l94 225q-145 85 -220 251.5 t-75 377.5zM219 682q0 -182 56 -319.5t163 -210.5l463 1099q-84 37 -196 37q-236 0 -361 -165t-125 -441zM510 111q87 -35 195 -35q159 0 269.5 78t163 212.5t52.5 315.5t-55 317.5t-162 210.5z" />
<glyph unicode="&#xd9;" horiz-adv-x="1368" d="M170 463v901h117v-913q0 -174 105 -274.5t292 -100.5q186 0 290.5 100.5t104.5 274.5v913h119v-901q0 -98 -32 -184.5t-93.5 -155t-162 -108.5t-226.5 -40t-226.5 40t-162 108.5t-93.5 155t-32 184.5zM453 1767h143l180 -270h-102z" />
<glyph unicode="&#xda;" horiz-adv-x="1368" d="M170 463v901h117v-913q0 -174 105 -274.5t292 -100.5q186 0 290.5 100.5t104.5 274.5v913h119v-901q0 -98 -32 -184.5t-93.5 -155t-162 -108.5t-226.5 -40t-226.5 40t-162 108.5t-93.5 155t-32 184.5zM596 1497l180 270h144l-222 -270h-102z" />
<glyph unicode="&#xdb;" horiz-adv-x="1368" d="M170 463v901h117v-913q0 -174 105 -274.5t292 -100.5q186 0 290.5 100.5t104.5 274.5v913h119v-901q0 -98 -32 -184.5t-93.5 -155t-162 -108.5t-226.5 -40t-226.5 40t-162 108.5t-93.5 155t-32 184.5zM397 1497l230 270h114l232 -270h-115l-174 209l-174 -209h-113z" />
<glyph unicode="&#xdc;" horiz-adv-x="1368" d="M170 463v901h117v-913q0 -174 105 -274.5t292 -100.5q186 0 290.5 100.5t104.5 274.5v913h119v-901q0 -98 -32 -184.5t-93.5 -155t-162 -108.5t-226.5 -40t-226.5 40t-162 108.5t-93.5 155t-32 184.5zM403 1628q0 37 24 61.5t62 24.5q39 0 64 -24.5t25 -61.5 q0 -38 -24.5 -62t-64.5 -24q-38 0 -62 24t-24 62zM788 1628q0 37 25.5 61.5t63.5 24.5t63 -24.5t25 -61.5q0 -38 -25 -62t-63 -24q-39 0 -64 24t-25 62z" />
<glyph unicode="&#xdd;" horiz-adv-x="1110" d="M39 1364h123l393 -698l393 698h123l-457 -801v-563h-116v563zM489 1497l181 270h143l-221 -270h-103z" />
<glyph unicode="&#xde;" horiz-adv-x="1175" d="M174 0v1364h117v-281h397q102 0 182.5 -31.5t131.5 -86t77.5 -125t26.5 -150.5q0 -106 -46 -193t-143 -142.5t-229 -55.5h-397v-299h-117zM291 395h387q147 0 228 80t81 215q0 136 -82 216.5t-229 80.5h-385v-592z" />
<glyph unicode="&#xdf;" horiz-adv-x="1134" d="M154 0v915q0 226 112.5 347.5t317.5 121.5q135 0 224 -70t89 -188q0 -40 -8.5 -74.5t-31 -72.5t-34.5 -54.5t-47 -60.5q-12 -15 -42.5 -51.5t-41.5 -52t-23 -45.5t-12 -60q0 -23 8.5 -43t19 -33t36 -29t42.5 -24.5t56 -27.5q117 -55 159 -88q87 -68 87 -174 q0 -113 -84.5 -184.5t-228.5 -71.5q-60 0 -131 13.5t-123 35.5l22 86q109 -45 221 -45q99 0 154 41.5t55 117.5q0 66 -45.5 103.5t-142.5 77.5q-105 43 -160 99t-55 140q0 39 8.5 72.5t30 67.5t38.5 55t52 61q40 47 58 71t35 65t17 83q0 79 -61 125.5t-152 46.5 q-147 0 -226 -98t-79 -285v-913h-114z" />
<glyph unicode="&#xe0;" horiz-adv-x="1013" d="M102 262q0 142 91 217.5t247 75.5h312v115q0 115 -63.5 168t-194.5 53q-157 0 -304 -66l-20 93q144 69 336 69q360 0 360 -305v-682h-110v182q-106 -202 -350 -202q-141 0 -222.5 75t-81.5 207zM215 260q0 -97 51.5 -147t163.5 -50q140 0 231 95t91 217v94h-299 q-125 0 -181.5 -52t-56.5 -157zM301 1419h133l139 -311h-98z" />
<glyph unicode="&#xe1;" horiz-adv-x="1013" d="M102 262q0 142 91 217.5t247 75.5h312v115q0 115 -63.5 168t-194.5 53q-157 0 -304 -66l-20 93q144 69 336 69q360 0 360 -305v-682h-110v182q-106 -202 -350 -202q-141 0 -222.5 75t-81.5 207zM215 260q0 -97 51.5 -147t163.5 -50q140 0 231 95t91 217v94h-299 q-125 0 -181.5 -52t-56.5 -157zM444 1108l138 311h135l-176 -311h-97z" />
<glyph unicode="&#xe2;" horiz-adv-x="1013" d="M102 262q0 142 91 217.5t247 75.5h312v115q0 115 -63.5 168t-194.5 53q-157 0 -304 -66l-20 93q144 69 336 69q360 0 360 -305v-682h-110v182q-106 -202 -350 -202q-141 0 -222.5 75t-81.5 207zM215 260q0 -97 51.5 -147t163.5 -50q140 0 231 95t91 217v94h-299 q-125 0 -181.5 -52t-56.5 -157zM246 1108l207 311h118l209 -311h-110l-158 244l-156 -244h-110z" />
<glyph unicode="&#xe3;" horiz-adv-x="1013" d="M102 262q0 142 91 217.5t247 75.5h312v115q0 115 -63.5 168t-194.5 53q-157 0 -304 -66l-20 93q144 69 336 69q360 0 360 -305v-682h-110v182q-106 -202 -350 -202q-141 0 -222.5 75t-81.5 207zM215 260q0 -97 51.5 -147t163.5 -50q140 0 231 95t91 217v94h-299 q-125 0 -181.5 -52t-56.5 -157zM215 1180q29 79 67.5 118t106.5 39q52 0 134.5 -46t115.5 -46q40 0 60.5 24.5t37.5 71.5l80 -30q-51 -156 -168 -156q-51 0 -135 46t-123 46q-20 0 -34.5 -6.5t-26.5 -23.5t-18 -28.5t-19 -39.5z" />
<glyph unicode="&#xe4;" horiz-adv-x="1013" d="M102 262q0 142 91 217.5t247 75.5h312v115q0 115 -63.5 168t-194.5 53q-157 0 -304 -66l-20 93q144 69 336 69q360 0 360 -305v-682h-110v182q-106 -202 -350 -202q-141 0 -222.5 75t-81.5 207zM215 260q0 -97 51.5 -147t163.5 -50q140 0 231 95t91 217v94h-299 q-125 0 -181.5 -52t-56.5 -157zM254 1241q0 37 24.5 61.5t61.5 24.5q39 0 63.5 -24.5t24.5 -61.5t-24.5 -62.5t-63.5 -25.5q-37 0 -61.5 25.5t-24.5 62.5zM614 1241q0 37 25 61.5t63 24.5t63.5 -24.5t25.5 -61.5t-25.5 -62.5t-63.5 -25.5t-63 25.5t-25 62.5z" />
<glyph unicode="&#xe5;" horiz-adv-x="1013" d="M102 262q0 142 91 217.5t247 75.5h312v115q0 115 -63.5 168t-194.5 53q-157 0 -304 -66l-20 93q144 69 336 69q360 0 360 -305v-682h-110v182q-106 -202 -350 -202q-141 0 -222.5 75t-81.5 207zM215 260q0 -97 51.5 -147t163.5 -50q140 0 231 95t91 217v94h-299 q-125 0 -181.5 -52t-56.5 -157zM338 1270q0 71 46 116.5t130 45.5q86 0 133 -45.5t47 -116.5t-47 -116.5t-133 -45.5q-84 0 -130 45.5t-46 116.5zM406 1270q0 -51 28.5 -78t79.5 -27q52 0 81.5 27.5t29.5 77.5t-29.5 78t-81.5 28q-51 0 -79.5 -27.5t-28.5 -78.5z" />
<glyph unicode="&#xe6;" horiz-adv-x="1642" d="M100 264q0 138 88 207.5t244 69.5h332v84q0 266 -281 266q-144 0 -286 -64l-21 93q141 67 318 67q269 0 342 -215q110 215 358 215q78 0 140 -22.5t103.5 -62.5t69.5 -96t40 -120t12 -139v-90h-680q5 -188 88 -288.5t268 -100.5q132 0 291 61l18 -80q-142 -69 -323 -69 q-148 0 -246.5 65t-149.5 174q-54 -115 -154.5 -177t-244.5 -62q-155 0 -240.5 75t-85.5 209zM207 260q0 -95 59 -146t172 -51q149 0 237.5 85.5t88.5 222.5v84h-318q-122 0 -180.5 -48t-58.5 -147zM881 541h567v26q0 153 -61 245.5t-195 92.5q-293 0 -311 -364z" />
<glyph unicode="&#xe7;" horiz-adv-x="882" d="M92 483q0 242 116.5 373t332.5 131q169 0 268 -55l-21 -88q-106 49 -235 49q-179 0 -262.5 -109t-83.5 -301q0 -191 83.5 -299t262.5 -108q125 0 235 47l21 -88q-47 -25 -120 -40t-146 -15l-17 -78q179 -18 179 -127q0 -146 -277 -160l-6 76q41 3 68 6.5t55.5 11.5 t42.5 22.5t14 35.5q0 10 -2.5 18.5t-9.5 14.5t-13 11t-18.5 9t-21 7t-25 5.5t-26 4t-28.5 4t-28 3.5l37 140q-181 22 -278 151t-97 348z" />
<glyph unicode="&#xe8;" horiz-adv-x="976" d="M92 483q0 236 109.5 370t320.5 134q99 0 172 -34t115 -96.5t62 -140.5t20 -175v-92h-686q6 -184 89.5 -282.5t266.5 -98.5q156 0 299 61l19 -80q-138 -69 -330 -69q-120 0 -209.5 37t-142.5 105t-79 158t-26 203zM207 535h575v26q0 344 -262 344q-295 0 -313 -370z M295 1419h133l139 -311h-98z" />
<glyph unicode="&#xe9;" horiz-adv-x="976" d="M92 483q0 236 109.5 370t320.5 134q99 0 172 -34t115 -96.5t62 -140.5t20 -175v-92h-686q6 -184 89.5 -282.5t266.5 -98.5q156 0 299 61l19 -80q-138 -69 -330 -69q-120 0 -209.5 37t-142.5 105t-79 158t-26 203zM207 535h575v26q0 344 -262 344q-295 0 -313 -370z M446 1108l138 311h135l-176 -311h-97z" />
<glyph unicode="&#xea;" horiz-adv-x="976" d="M92 483q0 236 109.5 370t320.5 134q99 0 172 -34t115 -96.5t62 -140.5t20 -175v-92h-686q6 -184 89.5 -282.5t266.5 -98.5q156 0 299 61l19 -80q-138 -69 -330 -69q-120 0 -209.5 37t-142.5 105t-79 158t-26 203zM207 535h575v26q0 344 -262 344q-295 0 -313 -370z M244 1108l207 311h118l209 -311h-110l-158 244l-156 -244h-110z" />
<glyph unicode="&#xeb;" horiz-adv-x="976" d="M92 483q0 236 109.5 370t320.5 134q99 0 172 -34t115 -96.5t62 -140.5t20 -175v-92h-686q6 -184 89.5 -282.5t266.5 -98.5q156 0 299 61l19 -80q-138 -69 -330 -69q-120 0 -209.5 37t-142.5 105t-79 158t-26 203zM207 535h575v26q0 344 -262 344q-295 0 -313 -370z M244 1241q0 37 24.5 61.5t61.5 24.5q39 0 63.5 -24.5t24.5 -61.5t-24.5 -62.5t-63.5 -25.5q-37 0 -61.5 25.5t-24.5 62.5zM604 1241q0 37 25 61.5t63 24.5t63 -24.5t25 -61.5t-25 -62.5t-63 -25.5t-63 25.5t-25 62.5z" />
<glyph unicode="&#xec;" horiz-adv-x="440" d="M4 1419h133l139 -311h-98zM164 0v967h115v-967h-115z" />
<glyph unicode="&#xed;" horiz-adv-x="440" d="M164 0v967h115v-967h-115zM174 1108l137 311h135l-176 -311h-96z" />
<glyph unicode="&#xee;" horiz-adv-x="440" d="M-45 1108l207 311h119l208 -311h-110l-158 244l-155 -244h-111zM164 0v967h115v-967h-115z" />
<glyph unicode="&#xef;" horiz-adv-x="440" d="M-45 1241q0 37 24.5 61.5t61.5 24.5q39 0 63.5 -24.5t24.5 -61.5t-24.5 -62.5t-63.5 -25.5q-37 0 -61.5 25.5t-24.5 62.5zM164 0v967h115v-967h-115zM315 1241q0 37 25 61.5t63 24.5t63.5 -24.5t25.5 -61.5t-25.5 -62.5t-63.5 -25.5t-63 25.5t-25 62.5z" />
<glyph unicode="&#xf0;" horiz-adv-x="1024" d="M92 440q0 94 25.5 176t74 145.5t126 100.5t174.5 37q120 0 207 -56t132 -159q-29 264 -229 430l-211 -135l-43 72l182 114q-113 75 -280 133l26 86q209 -71 338 -165l191 118l43 -67l-166 -107q252 -228 252 -661q0 -107 -29 -201t-83.5 -166t-139.5 -113.5t-190 -41.5 q-123 0 -216 67.5t-138.5 171t-45.5 221.5zM205 440q0 -161 75 -265.5t218 -104.5q81 0 144.5 32t101 86.5t56.5 120t19 137.5q0 150 -83 255.5t-228 105.5q-151 0 -227 -98.5t-76 -268.5z" />
<glyph unicode="&#xf1;" horiz-adv-x="1085" d="M164 0v967h110v-222q46 114 133.5 178t210.5 64q159 0 236.5 -85.5t77.5 -242.5v-659h-115v643q0 246 -227 246q-130 0 -220.5 -103t-90.5 -274v-512h-115zM252 1180q29 79 67.5 118t106.5 39q52 0 134.5 -46t115.5 -46q40 0 60.5 24.5t37.5 71.5l80 -30 q-51 -156 -168 -156q-51 0 -135 46t-123 46q-20 0 -34.5 -6.5t-26.5 -23.5t-18 -28.5t-19 -39.5z" />
<glyph unicode="&#xf2;" horiz-adv-x="1032" d="M92 483q0 147 45.5 258.5t143 178.5t235.5 67t235.5 -67t143 -178.5t45.5 -258.5q0 -145 -46 -257t-143.5 -179t-234.5 -67t-234.5 67t-143.5 179t-46 257zM207 483q0 -191 78 -300t231 -109t231 109t78 300q0 192 -78 302t-231 110t-231 -110t-78 -302zM299 1419h133 l139 -311h-98z" />
<glyph unicode="&#xf3;" horiz-adv-x="1032" d="M92 483q0 147 45.5 258.5t143 178.5t235.5 67t235.5 -67t143 -178.5t45.5 -258.5q0 -145 -46 -257t-143.5 -179t-234.5 -67t-234.5 67t-143.5 179t-46 257zM207 483q0 -191 78 -300t231 -109t231 109t78 300q0 192 -78 302t-231 110t-231 -110t-78 -302zM455 1108 l137 311h135l-176 -311h-96z" />
<glyph unicode="&#xf4;" horiz-adv-x="1032" d="M92 483q0 147 45.5 258.5t143 178.5t235.5 67t235.5 -67t143 -178.5t45.5 -258.5q0 -145 -46 -257t-143.5 -179t-234.5 -67t-234.5 67t-143.5 179t-46 257zM207 483q0 -191 78 -300t231 -109t231 109t78 300q0 192 -78 302t-231 110t-231 -110t-78 -302zM248 1108 l207 311h118l209 -311h-110l-158 244l-156 -244h-110z" />
<glyph unicode="&#xf5;" horiz-adv-x="1032" d="M92 483q0 147 45.5 258.5t143 178.5t235.5 67t235.5 -67t143 -178.5t45.5 -258.5q0 -145 -46 -257t-143.5 -179t-234.5 -67t-234.5 67t-143.5 179t-46 257zM207 483q0 -191 78 -300t231 -109t231 109t78 300q0 192 -78 302t-231 110t-231 -110t-78 -302zM221 1180 q29 79 67.5 118t106.5 39q52 0 134.5 -46t115.5 -46q40 0 60.5 24.5t37.5 71.5l80 -30q-51 -156 -168 -156q-51 0 -135 46t-123 46q-20 0 -34.5 -6.5t-26.5 -23.5t-18 -28.5t-19 -39.5z" />
<glyph unicode="&#xf6;" horiz-adv-x="1032" d="M92 483q0 147 45.5 258.5t143 178.5t235.5 67t235.5 -67t143 -178.5t45.5 -258.5q0 -145 -46 -257t-143.5 -179t-234.5 -67t-234.5 67t-143.5 179t-46 257zM207 483q0 -191 78 -300t231 -109t231 109t78 300q0 192 -78 302t-231 110t-231 -110t-78 -302zM248 1241 q0 37 24.5 61.5t61.5 24.5q39 0 63.5 -24.5t24.5 -61.5t-24.5 -62.5t-63.5 -25.5q-37 0 -61.5 25.5t-24.5 62.5zM608 1241q0 37 25 61.5t63 24.5t63 -24.5t25 -61.5t-25 -62.5t-63 -25.5t-63 25.5t-25 62.5z" />
<glyph unicode="&#xf7;" horiz-adv-x="1097" d="M117 614v95h864v-95h-864zM457 303q0 38 26 64t66 26q38 0 64 -26t26 -64q0 -37 -26 -62.5t-64 -25.5q-39 0 -65.5 25.5t-26.5 62.5zM457 1018q0 38 26 64t66 26q38 0 64 -26t26 -64q0 -37 -26 -62.5t-64 -25.5q-39 0 -65.5 25.5t-26.5 62.5z" />
<glyph unicode="&#xf8;" horiz-adv-x="1032" d="M92 483q0 147 45.5 258.5t143 178.5t235.5 67q94 0 170 -31l80 183h78l-96 -215q95 -63 143.5 -178t48.5 -263q0 -145 -46 -257t-143.5 -179t-234.5 -67q-90 0 -172 32l-80 -184h-76l95 217q-94 64 -142.5 177.5t-48.5 260.5zM207 483q0 -240 119 -344l321 729 q-66 27 -131 27q-153 0 -231 -110t-78 -302zM383 100q56 -26 133 -26q153 0 231 109t78 300q0 243 -118 346z" />
<glyph unicode="&#xf9;" horiz-adv-x="1075" d="M154 307v660h114v-643q0 -244 219 -244q129 0 219.5 103t90.5 272v512h114v-967h-110v221q-46 -112 -134.5 -176.5t-209.5 -64.5q-153 0 -228 86t-75 241zM356 1419h133l140 -311h-99z" />
<glyph unicode="&#xfa;" horiz-adv-x="1075" d="M154 307v660h114v-643q0 -244 219 -244q129 0 219.5 103t90.5 272v512h114v-967h-110v221q-46 -112 -134.5 -176.5t-209.5 -64.5q-153 0 -228 86t-75 241zM457 1108l137 311h135l-176 -311h-96z" />
<glyph unicode="&#xfb;" horiz-adv-x="1075" d="M154 307v660h114v-643q0 -244 219 -244q129 0 219.5 103t90.5 272v512h114v-967h-110v221q-46 -112 -134.5 -176.5t-209.5 -64.5q-153 0 -228 86t-75 241zM272 1108l207 311h119l209 -311h-111l-157 244l-156 -244h-111z" />
<glyph unicode="&#xfc;" horiz-adv-x="1075" d="M154 307v660h114v-643q0 -244 219 -244q129 0 219.5 103t90.5 272v512h114v-967h-110v221q-46 -112 -134.5 -176.5t-209.5 -64.5q-153 0 -228 86t-75 241zM276 1241q0 37 24.5 61.5t61.5 24.5q39 0 64 -24.5t25 -61.5t-25 -62.5t-64 -25.5q-37 0 -61.5 25.5t-24.5 62.5z M637 1241q0 37 25 61.5t63 24.5t63 -24.5t25 -61.5t-25 -62.5t-63 -25.5t-63 25.5t-25 62.5z" />
<glyph unicode="&#xfd;" horiz-adv-x="845" d="M20 967h119l287 -844l281 844h120l-473 -1332h-110l125 363zM356 1108l138 311h135l-176 -311h-97z" />
<glyph unicode="&#xfe;" horiz-adv-x="1099" d="M164 -365v1729h115v-606q51 110 137 169.5t202 59.5q99 0 175 -39t121.5 -108t68.5 -159t23 -198q0 -107 -23 -196.5t-68.5 -159t-121.5 -108.5t-175 -39q-116 0 -204 61t-135 168v-574h-115zM279 483q0 -109 34 -200t108 -150t177 -59q77 0 134.5 30.5t92 87t51.5 129 t17 162.5q0 188 -72 300t-223 112q-103 0 -177 -59.5t-108 -151t-34 -201.5z" />
<glyph unicode="&#xff;" horiz-adv-x="845" d="M20 967h119l287 -844l281 844h120l-473 -1332h-110l125 363zM168 1241q0 37 24.5 61.5t61.5 24.5q39 0 63.5 -24.5t24.5 -61.5t-24.5 -62.5t-63.5 -25.5q-37 0 -61.5 25.5t-24.5 62.5zM528 1241q0 37 25 61.5t63 24.5t63.5 -24.5t25.5 -61.5t-25.5 -62.5t-63.5 -25.5 t-63 25.5t-25 62.5z" />
<glyph unicode="&#x152;" horiz-adv-x="2052" d="M102 682q0 161 41 289.5t124 222.5t215 144.5t306 50.5q147 0 297 -25h850v-100h-731v-506h682v-101h-682v-557h731v-100h-850q-150 -25 -297 -25q-174 0 -306 50.5t-215 144.5t-124 222.5t-41 289.5zM219 682q0 -283 143.5 -444.5t428.5 -161.5q144 0 294 24v1164 q-150 24 -297 24q-144 0 -253.5 -43.5t-178 -124.5t-103 -191t-34.5 -247z" />
<glyph unicode="&#x153;" horiz-adv-x="1705" d="M92 483q0 147 45.5 258.5t143 178.5t235.5 67q261 0 365 -246q43 119 138 182.5t234 63.5q100 0 173 -34t115.5 -96.5t62.5 -140.5t20 -175v-90h-686q6 -185 90 -284t266 -99q146 0 301 61l17 -80q-138 -69 -330 -69q-151 0 -257.5 69.5t-143.5 175.5q-45 -113 -140 -179 t-225 -66q-137 0 -234.5 67t-143.5 179t-46 257zM207 483q0 -191 78 -300t231 -109t231 109t78 300q0 192 -78 302t-231 110t-231 -110t-78 -302zM940 535h576v26q0 102 -23.5 176t-84 121t-155.5 47q-295 0 -313 -370z" />
<glyph unicode="&#x178;" horiz-adv-x="1110" d="M39 1364h123l393 -698l393 698h123l-457 -801v-563h-116v563zM276 1628q0 37 24 61.5t62 24.5q39 0 64 -24.5t25 -61.5q0 -38 -24.5 -62t-64.5 -24q-38 0 -62 24t-24 62zM662 1628q0 37 25 61.5t63 24.5t63 -24.5t25 -61.5q0 -38 -25 -62t-63 -24t-63 24t-25 62z" />
<glyph unicode="&#x2c6;" horiz-adv-x="882" d="M174 1108l207 311h119l209 -311h-111l-158 244l-155 -244h-111z" />
<glyph unicode="&#x2dc;" horiz-adv-x="948" d="M174 1180q29 79 67.5 118t106.5 39q52 0 134.5 -46t115.5 -46q40 0 60.5 24.5t37.5 71.5l80 -30q-51 -156 -168 -156q-51 0 -135 46t-123 46q-20 0 -34.5 -6.5t-26.5 -23.5t-18 -28.5t-19 -39.5z" />
<glyph unicode="&#x2000;" horiz-adv-x="883" />
<glyph unicode="&#x2001;" horiz-adv-x="1767" />
<glyph unicode="&#x2002;" horiz-adv-x="883" />
<glyph unicode="&#x2003;" horiz-adv-x="1767" />
<glyph unicode="&#x2004;" horiz-adv-x="589" />
<glyph unicode="&#x2005;" horiz-adv-x="441" />
<glyph unicode="&#x2006;" horiz-adv-x="294" />
<glyph unicode="&#x2007;" horiz-adv-x="294" />
<glyph unicode="&#x2008;" horiz-adv-x="220" />
<glyph unicode="&#x2009;" horiz-adv-x="353" />
<glyph unicode="&#x200a;" horiz-adv-x="98" />
<glyph unicode="&#x2010;" horiz-adv-x="749" d="M135 545v96h479v-96h-479z" />
<glyph unicode="&#x2011;" horiz-adv-x="749" d="M135 545v96h479v-96h-479z" />
<glyph unicode="&#x2012;" horiz-adv-x="749" d="M135 545v96h479v-96h-479z" />
<glyph unicode="&#x2013;" horiz-adv-x="1142" d="M135 545v96h873v-96h-873z" />
<glyph unicode="&#x2014;" horiz-adv-x="1583" d="M135 545v96h1315v-96h-1315z" />
<glyph unicode="&#x2018;" horiz-adv-x="401" d="M72 897l178 467h90l-133 -467h-135z" />
<glyph unicode="&#x2019;" horiz-adv-x="399" d="M63 897l132 467h137l-180 -467h-89z" />
<glyph unicode="&#x201a;" horiz-adv-x="456" d="M61 -272l134 465h137l-180 -465h-91z" />
<glyph unicode="&#x201c;" horiz-adv-x="800" d="M72 897l178 467h90l-133 -467h-135zM469 897l180 467h90l-133 -467h-137z" />
<glyph unicode="&#x201d;" horiz-adv-x="800" d="M63 897l132 467h137l-180 -467h-89zM463 897l131 467h137l-180 -467h-88z" />
<glyph unicode="&#x201e;" horiz-adv-x="856" d="M61 -272l134 465h137l-180 -465h-91zM461 -272l133 465h137l-180 -465h-90z" />
<glyph unicode="&#x2022;" horiz-adv-x="714" d="M115 733q0 102 68 172t173 70t174.5 -70t69.5 -172q0 -103 -69.5 -172t-174.5 -69t-173 69t-68 172z" />
<glyph unicode="&#x2026;" horiz-adv-x="1484" d="M154 82q0 41 25.5 67.5t68.5 26.5t68.5 -26.5t25.5 -67.5q0 -42 -25 -68t-69 -26t-69 26t-25 68zM647 82q0 40 26 67t68 27q43 0 70 -27t27 -67q0 -42 -26.5 -68t-70.5 -26q-42 0 -68 26t-26 68zM1143 82q0 41 25.5 67.5t68.5 26.5t68.5 -26.5t25.5 -67.5q0 -42 -25 -68 t-69 -26t-69 26t-25 68z" />
<glyph unicode="&#x202f;" horiz-adv-x="353" />
<glyph unicode="&#x2039;" horiz-adv-x="655" d="M74 492l350 415h129l-350 -415l350 -416h-129z" />
<glyph unicode="&#x203a;" horiz-adv-x="655" d="M104 76l349 416l-349 415h127l353 -415l-353 -416h-127z" />
<glyph unicode="&#x205f;" horiz-adv-x="441" />
<glyph unicode="&#x20ac;" horiz-adv-x="1200" d="M86 451v88h186q-6 67 -6 143q0 72 6 143h-186v88h201q41 222 172 346.5t354 124.5q174 0 299 -59l-18 -88q-130 51 -269 51q-351 0 -426 -375h533v-88h-545q-6 -67 -6 -143t6 -143h545v-88h-533q75 -375 426 -375q139 0 269 51l18 -88q-125 -59 -299 -59q-223 0 -354 124 t-172 347h-201z" />
<glyph unicode="&#x2122;" horiz-adv-x="1394" d="M66 1296v68h460v-68h-190v-563h-80v563h-190zM651 733v631h86l209 -449l209 449h88v-631h-74v504l-182 -393h-82l-182 393v-504h-72z" />
<glyph unicode="&#xe000;" horiz-adv-x="962" d="M0 0v963h963v-963h-963z" />
</font>
</defs>
</svg>
