<?xml version="1.0" standalone="no"?>
<!DOCTYPE svg PUBLIC "-//W3C//DTD SVG 1.1//EN" "http://www.w3.org/Graphics/SVG/1.1/DTD/svg11.dtd" >
<svg xmlns="http://www.w3.org/2000/svg">
<metadata>
This is a custom SVG webfont generated by Font Squirrel.
Copyright   : Copyright c 2008 by Process Type Foundry All rights reserved
Designer    : Eric Olson
Foundry     : Process Type Foundry
Foundry URL : httpwwwprocesstypefoundrycom
</metadata>
<defs>
<font id="KnowledgeRegular" horiz-adv-x="1417" >
<font-face units-per-em="2048" ascent="1587" descent="-461" />
<missing-glyph horiz-adv-x="450" />
<glyph unicode=" "  horiz-adv-x="450" />
<glyph unicode="&#x09;" horiz-adv-x="450" />
<glyph unicode="&#xa0;" horiz-adv-x="450" />
<glyph unicode="!" horiz-adv-x="509" d="M133 106.5q0 53.5 33 86t88 32.5t88 -32.5t33 -86t-33 -87t-88 -33.5t-88 33.5t-33 87zM162 846v518h186v-518l-45 -481h-98z" />
<glyph unicode="&#x22;" horiz-adv-x="829" d="M123 1143v221h172v-221l-19 -316h-135zM535 1143v221h172v-221l-19 -316h-135z" />
<glyph unicode="#" horiz-adv-x="1323" d="M88 412l27 120h211l73 332h-215l27 121h215l82 379h139l-84 -379h357l84 379h135l-84 -379h200l-24 -121h-201l-74 -332h205l-28 -120h-203l-90 -412h-135l90 412h-357l-90 -412h-139l90 412h-211zM465 532h356l72 332h-354z" />
<glyph unicode="$" horiz-adv-x="1062" d="M98 1010q0 162 96.5 249t264.5 105v244h172v-244q176 -14 313 -80l-33 -137q-199 80 -364 80q-279 0 -279 -207q0 -92 64.5 -140.5t236.5 -109.5q88 -31 150.5 -61.5t126 -77.5t96.5 -113.5t33 -150.5q0 -152 -95.5 -247t-256.5 -118v-246h-172v244q-195 16 -349 94 l39 137q203 -94 391 -94q127 0 200 54.5t73 159t-68.5 159.5t-234.5 111q-205 68 -304.5 158t-99.5 231z" />
<glyph unicode="%" horiz-adv-x="1673" d="M88 1020q0 158 83 261t237 103q156 0 238.5 -103t82.5 -261t-83 -261.5t-238 -103.5q-154 0 -237 103.5t-83 261.5zM227 1020q0 -119 46 -185.5t135 -66.5q90 0 136 66.5t46 185.5t-46 185.5t-136 66.5q-88 0 -134.5 -66.5t-46.5 -185.5zM430 0l666 1364h155l-667 -1364 h-154zM952 344q0 158 83 261.5t239 103.5t238.5 -103.5t82.5 -261.5t-82.5 -261t-238.5 -103t-239 103t-83 261zM1094 344q0 -119 45 -185.5t135 -66.5t136 66.5t46 185.5t-46 185.5t-136 66.5t-135 -66.5t-45 -185.5z" />
<glyph unicode="&#x26;" horiz-adv-x="1300" d="M94 334q0 72 20.5 130t68.5 109.5t84 80t110 81.5q-178 190 -178 348q0 139 96 220t260 81q141 0 227 -70.5t86 -189.5q0 -113 -66.5 -196.5t-211.5 -198.5l323 -369q100 158 150 379l143 -32q-57 -264 -196 -455l219 -252h-201l-123 137q-174 -158 -399 -157 q-180 0 -296 96t-116 258zM260 336q0 -115 71.5 -170t192.5 -55q162 0 291 129l-350 395q-104 -76 -154.5 -141.5t-50.5 -157.5zM360 1090q0 -51 24 -102.5t49.5 -82.5t68.5 -76q76 57 112.5 90t70.5 85.5t34 107.5q0 68 -46 108t-122 40q-191 0 -191 -170z" />
<glyph unicode="'" horiz-adv-x="417" d="M123 1143v221h172v-221l-19 -316h-135z" />
<glyph unicode="(" horiz-adv-x="604" d="M119 602q0 254 71.5 467t229.5 463l127 -80q-131 -233 -191.5 -430t-60.5 -420t60.5 -419.5t191.5 -430.5l-127 -80q-158 250 -229.5 463t-71.5 467z" />
<glyph unicode=")" horiz-adv-x="604" d="M57 -248q131 236 191.5 431.5t60.5 418.5t-60.5 419t-191.5 431l127 80q158 -250 229.5 -464t71.5 -466t-71.5 -466t-229.5 -464z" />
<glyph unicode="*" horiz-adv-x="841" d="M82 893l289 119l-289 118l72 123l241 -196l-45 307h142l-46 -307l240 196l74 -123l-289 -118l289 -119l-74 -123l-240 197l46 -308h-142l45 308l-241 -197z" />
<glyph unicode="+" horiz-adv-x="1124" d="M109 588v147h372v404h162v-404h373v-147h-373v-404h-162v404h-372z" />
<glyph unicode="," horiz-adv-x="512" d="M59 -287l121 516h213l-198 -516h-136z" />
<glyph unicode="-" horiz-adv-x="749" d="M123 514v150h502v-150h-502z" />
<glyph unicode="." horiz-adv-x="520" d="M139 106.5q0 53.5 33 86t88 32.5t88 -32.5t33 -86t-33 -87t-88 -33.5t-88 33.5t-33 87z" />
<glyph unicode="/" horiz-adv-x="913" d="M98 -205l557 1589h170l-557 -1589h-170z" />
<glyph unicode="0" horiz-adv-x="1226" d="M98 682q0 326 128 514t386 188q260 0 388 -188t128 -514t-128 -514t-388 -188q-258 0 -386 188t-128 514zM274 682q0 -561 338 -561q340 0 340 561q0 559 -340 559q-338 0 -338 -559z" />
<glyph unicode="1" horiz-adv-x="700" d="M33 1294l346 70h153v-1364h-176v1202l-301 -55z" />
<glyph unicode="2" horiz-adv-x="1089" d="M92 0v96q0 78 11.5 140.5t41 116t58 91t86 81.5t98.5 71l119 76q182 113 253.5 181.5t71.5 172.5q0 215 -292 215q-164 0 -332 -84l-43 137q168 90 389 90q209 0 331 -90t122 -260q0 -82 -32 -151.5t-100.5 -132t-118.5 -97.5t-143 -92q-98 -61 -140 -90t-99.5 -81 t-79 -106.5t-21.5 -125.5v-15h709v-143h-889z" />
<glyph unicode="3" horiz-adv-x="1040" d="M76 70l39 133q184 -80 346 -80q305 0 305 250q0 117 -90 183.5t-244 66.5h-207v143h201q152 0 235.5 68.5t83.5 187.5q0 102 -72.5 160.5t-201.5 58.5q-152 0 -311 -82l-45 131q172 94 383 94q195 0 309.5 -89t114.5 -246q0 -121 -69 -215.5t-191 -135.5 q133 -35 206.5 -118.5t73.5 -210.5q0 -176 -131 -282.5t-338 -106.5q-200 0 -397 90z" />
<glyph unicode="4" horiz-adv-x="1140" d="M68 352v144l661 868h182v-872h183v-140h-183v-352h-168v352h-675zM240 492h503v675z" />
<glyph unicode="5" horiz-adv-x="1130" d="M119 86l43 129q201 -94 370 -94q160 0 249 81t89 220q0 135 -75.5 214t-221 79t-268.5 -94l-147 49v694h821v-143h-653v-441q121 78 290 78q193 0 309.5 -117.5t116.5 -316.5q0 -188 -135 -316t-368 -128q-221 0 -420 106z" />
<glyph unicode="6" horiz-adv-x="1138" d="M102 592q0 793 568 792q197 0 344 -73l-37 -137q-156 70 -293 69q-221 0 -314.5 -153.5t-97.5 -444.5q43 98 140.5 152.5t232.5 54.5q195 0 304.5 -115.5t109.5 -300t-127 -320.5t-338 -136q-233 0 -362.5 166.5t-129.5 445.5zM289 430q0 -131 75.5 -223t229.5 -92 q141 0 218 87t77 224q0 131 -75 209t-208 78q-137 0 -227 -80t-90 -203z" />
<glyph unicode="7" horiz-adv-x="960" d="M68 1221v143h845v-145l-551 -1219h-184l570 1221h-680z" />
<glyph unicode="8" horiz-adv-x="1161" d="M102 373q0 250 263 340q-102 49 -156.5 133t-54.5 186q0 158 114.5 255t311 97t312.5 -97t116 -255q0 -102 -54.5 -186t-156.5 -133q262 -90 262 -340q0 -166 -129 -279.5t-350 -113.5q-219 0 -348.5 113.5t-129.5 279.5zM272 383q0 -123 82 -195.5t225.5 -72.5 t226.5 72.5t83 195.5q0 111 -83 182.5t-226 71.5q-141 0 -224.5 -72.5t-83.5 -181.5zM317 1016q0 -106 70 -177t193 -71q125 0 193.5 70.5t68.5 177.5q0 104 -71 168.5t-191.5 64.5t-191.5 -64.5t-71 -168.5z" />
<glyph unicode="9" horiz-adv-x="1138" d="M80 928q0 193 124 324.5t343 131.5q238 0 363.5 -161.5t125.5 -450.5q0 -793 -567 -792q-197 0 -344 73l39 135q152 -70 295 -69q117 0 195.5 42t122.5 126t63.5 186t23.5 246q-109 -207 -370 -207q-188 0 -301 116t-113 300zM248 938q0 -287 284 -287q139 0 229.5 81 t90.5 208q0 131 -82 220t-225.5 89t-220 -87t-76.5 -224z" />
<glyph unicode=":" horiz-adv-x="509" d="M133 106.5q0 53.5 33 86t88 32.5t88 -32.5t33 -86t-33 -87t-88 -33.5t-88 33.5t-33 87zM133 704.5q0 53.5 33 87t88 33.5t88 -33.5t33 -87t-33 -86t-88 -32.5t-88 32.5t-33 86z" />
<glyph unicode=";" horiz-adv-x="544" d="M55 -287l123 516h209l-197 -516h-135zM160 702.5q0 53.5 34.5 88t90.5 34.5q57 0 92 -34.5t35 -88.5q0 -55 -36 -89.5t-91.5 -34.5t-90 35.5t-34.5 89z" />
<glyph unicode="&#x3c;" horiz-adv-x="1114" d="M98 594v135l908 410v-160l-721 -317l721 -318v-160z" />
<glyph unicode="=" horiz-adv-x="1124" d="M109 367v147h907v-147h-907zM109 809v147h907v-147h-907z" />
<glyph unicode="&#x3e;" horiz-adv-x="1114" d="M109 184v160l718 318l-718 317v160l907 -410v-135z" />
<glyph unicode="?" horiz-adv-x="917" d="M98 1309q147 76 344 75q180 0 283.5 -80.5t103.5 -230.5q0 -113 -56 -191.5t-183 -183.5q-86 -72 -116 -125t-30 -157v-56h-157v76q0 135 39 210t139 155q74 59 104.5 88t57 76t26.5 102q0 174 -231 174q-131 0 -293 -67zM244 106.5q0 53.5 32.5 86t88 32.5t88 -32.5 t32.5 -86.5q0 -55 -32.5 -87.5t-88 -32.5t-88 33.5t-32.5 87z" />
<glyph unicode="@" horiz-adv-x="1591" d="M86 532q0 356 215 571.5t559 215.5q301 0 477 -164t176 -416q0 -201 -100 -334t-268 -133q-109 0 -172.5 59.5t-59.5 145.5q-96 -205 -245 -205q-82 0 -124 61.5t-42 151.5q0 190 93 316.5t273 126.5q119 0 222 -49l-56 -310q-6 -37 -6 -61q0 -135 129 -135 q106 0 169 104.5t63 257.5q0 217 -148.5 348t-384.5 131q-272 0 -457.5 -187t-185.5 -490q0 -274 157.5 -431t440.5 -157q260 0 494 119l36 -99q-244 -127 -542 -127q-334 0 -523.5 191.5t-189.5 498.5zM637 500q0 -117 73.5 -117t130 94t83.5 244l16 86q-31 12 -76 12 q-111 0 -169 -91t-58 -228z" />
<glyph unicode="A" horiz-adv-x="1280" d="M35 0l506 1364h198l508 -1364h-182l-127 358h-596l-125 -358h-182zM395 510h492l-246 711z" />
<glyph unicode="B" horiz-adv-x="1236" d="M160 0v1364h567q184 0 284.5 -88t100.5 -242q0 -119 -64.5 -207t-187.5 -131q135 -25 215 -107.5t80 -217.5q0 -168 -118.5 -269.5t-313.5 -101.5h-563zM336 143h366q135 0 205 65.5t70 176.5q0 109 -75 170t-218 61h-348v-473zM336 760h334q125 0 195.5 70.5t70.5 177.5 q0 100 -64.5 156.5t-185.5 56.5h-350v-461z" />
<glyph unicode="C" horiz-adv-x="1214" d="M88 682q0 324 182.5 515.5t495.5 191.5q227 0 371 -70l-29 -145q-150 57 -309 57q-250 0 -390.5 -144.5t-140.5 -404.5t140.5 -404.5t390.5 -144.5q160 0 309 57l29 -145q-143 -70 -371 -70q-313 0 -495.5 191.5t-182.5 515.5z" />
<glyph unicode="D" horiz-adv-x="1378" d="M162 0v1364h485q287 0 470 -190.5t183 -491.5t-183 -491.5t-470 -190.5h-485zM344 156h297q207 0 343 138t136 388t-136 388t-343 138h-297v-1052z" />
<glyph unicode="E" horiz-adv-x="1138" d="M160 0v1364h878v-156h-698v-432h653v-155h-653v-465h700v-156h-880z" />
<glyph unicode="F" horiz-adv-x="1085" d="M160 0v1364h872v-156h-692v-473h645v-157h-645v-578h-180z" />
<glyph unicode="G" horiz-adv-x="1339" d="M88 678q0 324 186.5 517.5t522.5 193.5q248 0 422 -74l-27 -150q-197 68 -381 68q-262 0 -402.5 -143.5t-140.5 -413.5q0 -260 138.5 -406.5t390.5 -146.5q129 0 241 24v463h172v-573q-170 -61 -409 -62q-342 0 -527.5 195t-185.5 508z" />
<glyph unicode="H" horiz-adv-x="1374" d="M160 0v1364h180v-588h694v588h180v-1364h-180v616h-694v-616h-180z" />
<glyph unicode="I" horiz-adv-x="520" d="M170 0v1364h180v-1364h-180z" />
<glyph unicode="J" horiz-adv-x="763" d="M29 14l22 142q92 -25 174 -25q201 0 201 209v1024h180v-1022q0 -170 -88 -266t-260 -96q-120 -1 -229 34z" />
<glyph unicode="K" horiz-adv-x="1210" d="M160 0v1364h180v-627l596 627h233l-641 -664l650 -700h-234l-604 664v-664h-180z" />
<glyph unicode="L" horiz-adv-x="1044" d="M160 0v1364h180v-1208h655v-156h-835z" />
<glyph unicode="M" horiz-adv-x="1638" d="M160 0v1364h178l481 -1030l481 1030h179v-1364h-170v1024l-398 -852h-184l-397 852v-1024h-170z" />
<glyph unicode="N" horiz-adv-x="1419" d="M160 0v1364h178l747 -1083v1083h175v-1364h-179l-747 1083v-1083h-174z" />
<glyph unicode="O" d="M88 682q0 303 160 505t461 202t460.5 -202t159.5 -505t-159.5 -505t-460.5 -202t-461 202t-160 505zM268 682q0 -256 110.5 -406.5t330 -150.5t330 150.5t110.5 406.5t-110.5 406.5t-330 150.5t-330 -150.5t-110.5 -406.5z" />
<glyph unicode="P" horiz-adv-x="1200" d="M160 0v1364h549q203 0 318.5 -117t115.5 -295q0 -174 -117 -292.5t-317 -118.5h-369v-541h-180zM340 688h348q129 0 201 70.5t72 193.5t-73 194t-200 71h-348v-529z" />
<glyph unicode="Q" d="M88 682q0 303 160 505t461 202t460.5 -202t159.5 -505q0 -389 -237 -582l147 -239l-129 -78l-149 240q-113 -47 -252 -48q-301 0 -461 202t-160 505zM268 682q0 -256 110.5 -406.5t330.5 -150.5q104 0 178 33l-111 182l121 76l109 -178q143 143 143 444 q0 256 -110.5 406.5t-330 150.5t-330 -150.5t-110.5 -406.5z" />
<glyph unicode="R" horiz-adv-x="1320" d="M160 0v1364h577q209 0 323 -111.5t114 -291.5q0 -141 -84 -246t-228 -144l385 -571h-217l-356 555h-334v-555h-180zM340 700h373q129 0 203.5 71t74.5 190q0 121 -73.5 188.5t-204.5 67.5h-373v-517z" />
<glyph unicode="S" horiz-adv-x="1146" d="M92 1016q0 373 492 373q242 0 438 -91l-35 -145q-205 88 -401 88q-158 0 -238 -49t-80 -166q0 -106 71 -152.5t271 -101.5q109 -31 179.5 -59.5t141 -74.5t105.5 -114.5t35 -158.5q0 -182 -132 -286t-363.5 -104t-479.5 101l41 145q231 -96 438 -96q150 0 235 55.5 t85 165.5q0 106 -83 166.5t-271 108.5q-231 57 -340 148t-109 247z" />
<glyph unicode="T" horiz-adv-x="1089" d="M43 1208v156h1004v-156h-412v-1208h-180v1208h-412z" />
<glyph unicode="U" horiz-adv-x="1382" d="M156 483v881h180v-895q0 -160 93 -251t261 -91t262.5 91t94.5 251v895h180v-881q0 -215 -140.5 -361.5t-396.5 -146.5t-395 146.5t-139 361.5z" />
<glyph unicode="V" horiz-adv-x="1173" d="M20 1364h181l387 -1169l385 1169h180l-461 -1364h-209z" />
<glyph unicode="W" horiz-adv-x="1751" d="M16 1364h179l274 -1094l307 1094h201l305 -1094l277 1094h176l-367 -1364h-170l-321 1192l-324 -1192h-168z" />
<glyph unicode="X" horiz-adv-x="1204" d="M47 0l459 692l-447 672h197l346 -530l346 530h197l-447 -672l459 -692h-194l-361 549l-360 -549h-195z" />
<glyph unicode="Y" horiz-adv-x="1120" d="M20 1364h191l350 -653l350 653h189l-449 -813v-551h-180v551z" />
<glyph unicode="Z" horiz-adv-x="1173" d="M109 0v160l753 1048h-731v156h926v-160l-754 -1048h772v-156h-966z" />
<glyph unicode="[" horiz-adv-x="616" d="M170 -307v1818h389v-151h-213v-1516h213v-151h-389z" />
<glyph unicode="\" horiz-adv-x="913" d="M88 1384h170l557 -1589h-170z" />
<glyph unicode="]" horiz-adv-x="616" d="M57 -156h213v1516h-213v151h389v-1818h-389v151z" />
<glyph unicode="^" horiz-adv-x="974" d="M82 690l326 674h159l324 -674h-160l-244 529l-243 -529h-162z" />
<glyph unicode="_" horiz-adv-x="837" d="M-2 -160h842v-90h-842v90z" />
<glyph unicode="`" horiz-adv-x="663" d="M160 1423h219l127 -311h-166z" />
<glyph unicode="a" horiz-adv-x="1048" d="M98 268q0 150 93.5 226.5t250.5 76.5h295v91q0 98 -57 143t-176 45q-160 0 -307 -68l-31 140q166 78 360 77q387 0 387 -325v-674h-168v166q-106 -186 -342 -186q-143 0 -224 77.5t-81 210.5zM268 270q0 -166 187 -166q121 0 201.5 81t80.5 198v61h-270q-199 0 -199 -174 z" />
<glyph unicode="b" horiz-adv-x="1118" d="M150 0v1364h176v-573q98 209 323 208q195 0 292 -141t97 -368.5t-97 -368.5t-290 -141q-115 0 -200.5 56t-131.5 150v-186h-169zM326 489.5q0 -159.5 71.5 -264t206.5 -104.5q258 0 258 368.5t-258 368.5q-135 0 -206.5 -104.5t-71.5 -264z" />
<glyph unicode="c" horiz-adv-x="899" d="M80 489.5q0 241.5 121 375.5t346 134q174 0 287 -61l-29 -131q-109 49 -232 49q-317 0 -317 -366.5t317 -366.5q123 0 232 49l29 -133q-109 -59 -287 -59q-225 0 -346 134t-121 375.5z" />
<glyph unicode="d" horiz-adv-x="1118" d="M80 489.5q0 227.5 97 368.5t292 141q225 0 324 -208v573h176v-1364h-170v186q-98 -207 -332 -206q-193 0 -290 141t-97 368.5zM256 489.5q0 -368.5 258 -368.5q135 0 207 104.5t72 264t-72 264t-207 104.5q-258 0 -258 -368.5z" />
<glyph unicode="e" horiz-adv-x="997" d="M82 489q0 231 115.5 370.5t334.5 139.5q203 0 297.5 -123.5t94.5 -338.5v-109h-664q10 -158 85 -237.5t239 -79.5q141 0 299 67l28 -123q-152 -76 -352 -75q-238 0 -357.5 138t-119.5 371zM260 557h496v25q0 293 -226 292q-247 0 -270 -317z" />
<glyph unicode="f" horiz-adv-x="610" d="M55 838v141h131v106q0 154 66.5 226.5t208.5 72.5q84 0 153 -24l-10 -129q-51 14 -106 14q-72 0 -104 -38t-32 -124v-104h201v-141h-201v-838h-176v838h-131z" />
<glyph unicode="g" horiz-adv-x="1118" d="M80 508q0 211 97 351t296 140q227 0 324 -206v186h172v-932q0 -195 -110.5 -313.5t-344.5 -118.5q-182 0 -344 66l27 135q160 -63 315.5 -63.5t219 74.5t63.5 214v184q-47 -96 -131 -151.5t-191 -55.5q-199 0 -296 139.5t-97 350.5zM256 508q0 -160 67.5 -254t198.5 -94 q125 0 199 98t74 250q0 156 -73 254t-200 98q-129 0 -197.5 -96t-68.5 -256z" />
<glyph unicode="h" horiz-adv-x="1105" d="M150 0v1364h176v-582q92 217 325 217q315 0 316 -333v-666h-176v639q0 209 -197 209q-119 0 -193.5 -87t-74.5 -237v-524h-176z" />
<glyph unicode="i" horiz-adv-x="475" d="M119 1243q0 49 32.5 84t86.5 35q51 0 83.5 -35t32.5 -84t-32.5 -84t-83.5 -35q-53 0 -86 35t-33 84zM150 0v979h176v-979h-176z" />
<glyph unicode="j" horiz-adv-x="473" d="M-61 -365l12 140q39 -10 90 -11q59 0 84 30t25 91v1094h176v-1112q0 -252 -248 -252q-78 0 -139 20zM119 1243q0 49 32.5 84t86.5 35q51 0 83.5 -35t32.5 -84t-32.5 -84t-83.5 -35q-53 0 -86 35t-33 84z" />
<glyph unicode="k" horiz-adv-x="968" d="M150 0v1364h176v-834l393 449h211l-432 -477l450 -502h-209l-413 471v-471h-176z" />
<glyph unicode="l" horiz-adv-x="555" d="M145 240v1124h177v-1124q0 -113 98 -113q37 0 78 10l6 -133q-59 -18 -139 -18q-220 0 -220 254z" />
<glyph unicode="m" horiz-adv-x="1693" d="M150 0v979h169v-201q88 221 312 221q125 0 194.5 -55t102.5 -166q37 98 115.5 159.5t197.5 61.5q313 0 313 -333v-666h-176v639q0 209 -194 209q-109 0 -176.5 -92t-67.5 -244v-512h-176v639q0 209 -195 209q-111 0 -177 -87t-66 -237v-524h-176z" />
<glyph unicode="n" horiz-adv-x="1105" d="M150 0v979h169v-201q96 221 332 221q315 0 316 -333v-666h-176v639q0 209 -197 209q-119 0 -193.5 -87t-74.5 -237v-524h-176z" />
<glyph unicode="o" horiz-adv-x="1054" d="M82 489.5q0 227.5 115.5 368.5t330.5 141t330 -141t115 -368.5t-115 -368.5t-330 -141t-330.5 141t-115.5 368.5zM258 489.5q0 -176.5 67.5 -274.5t203 -98t202 98t66.5 274.5t-66.5 274.5t-202 98t-203 -98t-67.5 -274.5z" />
<glyph unicode="p" horiz-adv-x="1118" d="M150 -365v1344h169v-188q98 209 332 208q193 0 290 -141t97 -368.5t-97 -368.5t-292 -141q-225 0 -323 206v-551h-176zM326 489.5q0 -159.5 71.5 -264t206.5 -104.5q258 0 258 368.5t-258 368.5q-135 0 -206.5 -104.5t-71.5 -264z" />
<glyph unicode="q" horiz-adv-x="1118" d="M80 489.5q0 227.5 97 368.5t290 141q233 0 332 -208v188h170v-1344h-176v551q-98 -207 -324 -206q-195 0 -292 141t-97 368.5zM256 489.5q0 -368.5 258 -368.5q135 0 207 104.5t72 264t-72 264t-207 104.5q-258 0 -258 -368.5z" />
<glyph unicode="r" horiz-adv-x="690" d="M150 0v979h174v-213q63 223 272 223q55 0 88 -10v-158q-37 6 -86 6q-131 0 -200.5 -93t-69.5 -245v-489h-178z" />
<glyph unicode="s" horiz-adv-x="872" d="M78 717q0 283 364 282q182 0 332 -67l-33 -127q-154 61 -295 61q-197 0 -196 -129q0 -35 11 -58.5t47 -43t67 -30.5t106 -34q162 -49 243 -110.5t81 -177.5q0 -143 -98.5 -223t-268.5 -80q-172 0 -356 73l39 129q174 -70 315 -69q197 0 197 143q0 63 -44 95t-161 65 q-190 53 -270 119.5t-80 181.5z" />
<glyph unicode="t" horiz-adv-x="681" d="M68 829v150h137v256h176v-256h231v-150h-231v-587q0 -61 26.5 -90t94.5 -29q47 0 104 14l4 -131q-74 -25 -159 -24q-129 0 -187.5 61t-58.5 184v602h-137z" />
<glyph unicode="u" horiz-adv-x="1095" d="M139 311v668h176v-639q0 -209 191 -209q117 0 190.5 87t73.5 237v524h176v-979h-172v199q-94 -219 -328 -219q-307 -1 -307 331z" />
<glyph unicode="v" horiz-adv-x="894" d="M8 979h180l261 -809l258 809h180l-340 -979h-199z" />
<glyph unicode="w" horiz-adv-x="1421" d="M12 979h170l207 -780l225 780h191l227 -780l205 780h172l-289 -979h-174l-235 815l-238 -815h-174z" />
<glyph unicode="x" horiz-adv-x="927" d="M41 0l334 502l-316 477h185l219 -346l221 346h184l-317 -477l336 -502h-187l-237 371l-236 -371h-186z" />
<glyph unicode="y" horiz-adv-x="878" d="M8 979h182l252 -795l246 795h182l-458 -1344h-176l120 361z" />
<glyph unicode="z" horiz-adv-x="917" d="M92 0v141l531 697h-502v141h704v-141l-536 -697h547v-141h-744z" />
<glyph unicode="{" horiz-adv-x="655" d="M25 528v148h34q168 0 168 166v409q0 260 252 260h129v-151h-86q-119 0 -119 -129v-375q0 -219 -202 -254q203 -35 202 -254v-375q0 -129 119 -129h86v-151h-129q-252 0 -252 260v409q0 166 -168 166h-34z" />
<glyph unicode="|" horiz-adv-x="509" d="M180 -512v2048h150v-2048h-150z" />
<glyph unicode="}" horiz-adv-x="655" d="M45 -156h88q119 0 119 129v375q0 219 203 254q-203 35 -203 254v375q0 129 -119 129h-88v151h131q252 0 252 -260v-409q0 -166 168 -166h33v-148h-33q-168 0 -168 -166v-409q0 -260 -252 -260h-131v151z" />
<glyph unicode="~" horiz-adv-x="1122" d="M98 557q41 133 99.5 196.5t167.5 63.5q76 0 218 -71.5t185 -71.5q14 0 26.5 4t21.5 8t18.5 15.5t13.5 18.5t11 23l10 24q3 7 9.5 27.5l8.5 26.5l147 -45q-76 -268 -243 -268q-74 0 -216.5 70.5t-195.5 70.5q-41 0 -68.5 -24.5t-38 -47t-26.5 -71.5z" />
<glyph unicode="&#xa1;" horiz-adv-x="509" d="M133 878.5q0 53.5 33 87t88 33.5t88 -33.5t33 -87t-33 -86t-88 -32.5t-88 32.5t-33 86zM162 137l43 479h98l45 -479v-502h-186v502z" />
<glyph unicode="&#xa2;" horiz-adv-x="940" d="M92 684q0 197 95.5 316.5t271.5 146.5v237h174v-235q104 -8 213 -57l-33 -131q-113 51 -238 51q-311 0 -311 -328t311 -328q125 0 238 52l33 -132q-100 -47 -213 -57v-239h-174v241q-176 25 -271.5 145.5t-95.5 317.5z" />
<glyph unicode="&#xa3;" horiz-adv-x="1093" d="M92 0v131q209 184 223 438h-204v144h206v264q0 201 103.5 304t302.5 103q180 0 309 -61l-31 -137q-133 55 -264 55q-125 0 -184 -61.5t-59 -200.5v-266h368v-144h-370q-14 -250 -197 -426h688v-143h-891z" />
<glyph unicode="&#xa4;" horiz-adv-x="1177" d="M88 221l168 170q-98 119 -98 271q0 150 98 268l-168 172l105 100l180 -180q92 59 215 59q125 0 217 -59l180 180l105 -100l-170 -172q98 -115 98 -268q0 -156 -98 -271l170 -170l-105 -100l-180 178q-96 -57 -217 -57q-119 0 -215 57l-180 -178zM309 661.5 q0 -126.5 76 -211.5t203 -85t203.5 85t76.5 211.5t-76.5 211.5t-203.5 85t-203 -85t-76 -211.5z" />
<glyph unicode="&#xa5;" horiz-adv-x="1067" d="M72 1364h182l281 -680l278 680h182l-245 -543h194v-133h-254l-67 -151v-72h321v-129h-321v-336h-177v336h-323v129h323v72l-69 151h-254v133h194z" />
<glyph unicode="&#xa6;" horiz-adv-x="509" d="M180 297h150v-809h-150v809zM180 727v809h150v-809h-150z" />
<glyph unicode="&#xa7;" horiz-adv-x="1083" d="M96 -291l39 127q190 -90 379 -90q125 0 199.5 45t74.5 135q0 35 -15 63.5t-34.5 49t-67.5 45.5t-83 39l-113 45q-195 76 -280.5 154.5t-85.5 218.5q0 180 192 297q-156 100 -156 254q0 145 112 218.5t314 73.5q199 0 369 -73l-31 -129q-162 72 -336 71 q-133 0 -196.5 -35.5t-63.5 -121.5q0 -35 14.5 -63.5t30 -47t61.5 -42t74 -35.5l101 -42l117 -49t103.5 -54t94 -68.5t56 -84t24.5 -110.5q0 -92 -55 -176t-137 -140q160 -100 159 -250q0 -143 -122.5 -231t-307.5 -88q-231 0 -430 94zM276 553q0 -90 58.5 -140.5 t208.5 -109.5q80 -31 137 -57q141 100 141 233q0 39 -17.5 73t-39 55.5t-71.5 49t-85 41.5l-110 45q-53 20 -78 33q-43 -35 -68.5 -59.5t-50.5 -69.5t-25 -94z" />
<glyph unicode="&#xa8;" horiz-adv-x="909" d="M160 1253q0 45 29.5 75t76.5 30q49 0 79 -30t30 -75t-30 -75.5t-79 -30.5q-47 0 -76.5 30.5t-29.5 75.5zM535 1253q0 45 29.5 75t78.5 30t78 -30t29 -75t-30 -75.5t-77 -30.5q-49 0 -78.5 30.5t-29.5 75.5z" />
<glyph unicode="&#xa9;" horiz-adv-x="1574" d="M78 682q0 297 198.5 502t509.5 205q313 0 512 -205t199 -502t-199.5 -502t-511 -205t-510 205t-198.5 502zM156 682q0 -266 176 -451.5t454.5 -185.5t455.5 185.5t177 451.5t-177 451.5t-455.5 185.5t-454.5 -185.5t-176 -451.5zM438 682q0 180 105.5 290.5t294.5 110.5 q117 0 211 -43l-21 -98q-86 33 -178 33q-139 0 -211 -78t-72 -215t72 -215t211 -78q96 0 178 33l21 -98q-86 -43 -211 -43q-188 0 -294 110.5t-106 290.5z" />
<glyph unicode="&#xaa;" horiz-adv-x="765" d="M100 492v106h568v-106h-568zM102 905q0 197 230 197h190v57q0 63 -35.5 91t-111.5 28q-100 0 -205 -47l-23 102q98 51 242 51q260 0 260 -217v-442h-121v115q-25 -55 -83 -91t-138 -36q-96 0 -150.5 51t-54.5 141zM223 905q0 -104 121 -104q78 0 128 51t50 121v39h-170 q-129 -1 -129 -107z" />
<glyph unicode="&#xab;" horiz-adv-x="1179" d="M61 498l338 417h201l-336 -417l336 -420h-201zM549 498l338 417h200l-335 -417l335 -420h-200z" />
<glyph unicode="&#xac;" horiz-adv-x="1124" d="M109 588v147h907v-551h-162v404h-745z" />
<glyph unicode="&#xad;" horiz-adv-x="749" d="M123 514v150h502v-150h-502z" />
<glyph unicode="&#xae;" horiz-adv-x="1079" d="M88 944q0 186 125 315.5t325.5 129.5t326.5 -129.5t126 -315.5t-127 -316t-325.5 -130t-324.5 130t-126 316zM154 944q0 -166 106.5 -277.5t278.5 -111.5t279.5 111.5t107.5 277.5t-106.5 276.5t-280.5 110.5q-172 0 -278.5 -111.5t-106.5 -275.5zM393 733v447h166 q72 0 114 -35t42 -96q0 -100 -92 -134l139 -182h-103l-127 172h-53v-172h-86zM479 971h72q78 0 78 71q0 68 -76 68h-74v-139z" />
<glyph unicode="&#xaf;" horiz-adv-x="862" d="M160 1167v138h542v-138h-542z" />
<glyph unicode="&#xb0;" horiz-adv-x="686" d="M82 1130.5q0 106.5 69.5 180t190.5 73.5t191.5 -73.5t70.5 -180t-70.5 -180t-191.5 -73.5t-190.5 73.5t-69.5 180zM193 1130q0 -70 38.5 -115.5t110.5 -45.5t112 45t40 116.5t-40 117.5t-112 46t-110.5 -46t-38.5 -118z" />
<glyph unicode="&#xb1;" horiz-adv-x="1124" d="M109 0v139h372v377h-372v146h372v403h162v-403h373v-146h-373v-377h373v-139h-907z" />
<glyph unicode="&#xb2;" horiz-adv-x="735" d="M98 799v59q0 119 54.5 186.5t171.5 141.5q66 41 94 61.5t57 55t29 69.5q0 106 -148 107q-96 0 -194 -54l-31 105q106 57 244 57q127 0 194.5 -53t67.5 -154q0 -33 -10.5 -63.5t-22.5 -51t-39.5 -46t-42 -37t-52.5 -37t-48 -33.5l-54 -36l-54.5 -37t-41 -34.5t-32 -43 t-9.5 -48.5v-8h394v-106h-527z" />
<glyph unicode="&#xb3;" horiz-adv-x="710" d="M98 842l31 96q96 -43 195 -43q156 0 155.5 121t-176.5 121h-113v110h111q78 0 122 34t44 89q0 51 -37 80t-100 29q-84 0 -178 -49l-33 100q109 57 233 57q119 0 184.5 -52t65.5 -142q0 -147 -143 -199q154 -39 153 -182q0 -98 -75.5 -161t-200.5 -63q-117 1 -238 54z" />
<glyph unicode="&#xb4;" horiz-adv-x="663" d="M160 1112l125 311h221l-180 -311h-166z" />
<glyph unicode="&#xb5;" horiz-adv-x="1161" d="M150 -365v1344h176v-639q0 -209 190 -209q115 0 189.5 87t74.5 237v524h176v-705q0 -84 22.5 -122.5t94.5 -38.5h33v-109q-37 -16 -102 -16q-100 0 -151.5 60.5t-55.5 154.5q-113 -223 -348 -223q-98 0 -175 49q51 -88 52 -211v-183h-176z" />
<glyph unicode="&#xb6;" horiz-adv-x="1097" d="M61 870q0 227 141.5 360.5t356.5 133.5h389v-1651h-141v1530h-248v-866q-225 0 -361.5 136t-136.5 357z" />
<glyph unicode="&#xb7;" horiz-adv-x="520" d="M139 559q0 53 33 87t88 34t88 -34t33 -87t-33 -87t-88 -34t-88 34t-33 87z" />
<glyph unicode="&#xb8;" horiz-adv-x="634" d="M160 -297q164 8 164 68q0 35 -38 46t-114 15l41 168h90l-20 -96q193 -8 192 -125q0 -154 -309 -164z" />
<glyph unicode="&#xb9;" horiz-adv-x="487" d="M78 1538l198 39h115v-774h-135v651l-168 -29z" />
<glyph unicode="&#xba;" horiz-adv-x="790" d="M98 1048.5q0 151.5 77 243.5t220.5 92t220 -92t76.5 -243.5t-76.5 -243.5t-220 -92t-220.5 92t-77 243.5zM121 492v106h549v-106h-549zM225 1049q0 -236 170 -236t170 236q0 233 -170 233t-170 -233z" />
<glyph unicode="&#xbb;" horiz-adv-x="1179" d="M92 78l336 420l-336 417h201l338 -417l-338 -420h-201zM580 78l335 420l-335 417h200l338 -417l-338 -420h-200z" />
<glyph unicode="&#xbc;" horiz-adv-x="1568" d="M98 1325l199 39h115v-774h-136v651l-167 -29zM326 0l708 1364h142l-707 -1364h-143zM864 190v105l367 481h141v-483h101v-103h-101v-190h-129v190h-379zM987 293h256v344z" />
<glyph unicode="&#xbd;" horiz-adv-x="1640" d="M98 1325l199 39h115v-774h-136v651l-167 -29zM326 0l708 1364h142l-707 -1364h-143zM1004 0v59q0 119 54 186.5t171 141.5q66 41 94.5 61.5t57 55.5t28.5 69q0 106 -147 107q-96 0 -195 -53l-31 104q106 57 244 57q127 0 194.5 -53t67.5 -153q0 -33 -10 -64t-22.5 -51.5 t-40 -46t-42 -36.5t-52.5 -36.5t-48 -34.5l-54 -35q-36 -24 -54.5 -37.5t-41 -35t-31.5 -43t-9 -47.5v-9h393v-106h-526z" />
<glyph unicode="&#xbe;" horiz-adv-x="1646" d="M94 629l31 96q96 -43 194 -43q156 0 156 121t-176 121h-113v110h111q78 0 122 34t44 89q0 51 -37 80t-100 29q-84 0 -179 -49l-32 100q109 57 233 57q119 0 184.5 -52t65.5 -142q0 -147 -143 -199q154 -39 153 -182q0 -98 -75.5 -161t-200.5 -63q-117 1 -238 54zM401 0 l709 1364h141l-706 -1364h-144zM940 190v105l367 481h141v-483h100v-103h-100v-190h-129v190h-379zM1063 293h256v344z" />
<glyph unicode="&#xbf;" horiz-adv-x="917" d="M98 -74q0 113 56.5 192t183.5 183q86 72 115.5 125t29.5 158v45h158v-66q0 -135 -39 -209.5t-139 -154.5q-74 -59 -104.5 -88t-57.5 -76t-27 -103q0 -174 232 -174q131 0 293 68l30 -135q-147 -76 -344 -76q-180 0 -283.5 80.5t-103.5 230.5zM442 879q0 55 33 87.5 t88 32.5t88 -33.5t33 -87t-33 -86t-88 -32.5t-88 33t-33 86z" />
<glyph unicode="&#xc0;" horiz-adv-x="1280" d="M35 0l506 1364h198l508 -1364h-182l-127 358h-596l-125 -358h-182zM307 1765h232l170 -270h-166zM395 510h492l-246 711z" />
<glyph unicode="&#xc1;" horiz-adv-x="1280" d="M35 0l506 1364h198l508 -1364h-182l-127 358h-596l-125 -358h-182zM395 510h492l-246 711zM563 1495l170 270h232l-234 -270h-168z" />
<glyph unicode="&#xc2;" horiz-adv-x="1280" d="M35 0l506 1364h198l508 -1364h-182l-127 358h-596l-125 -358h-182zM324 1495l231 270h170l236 -270h-170l-150 174l-147 -174h-170zM395 510h492l-246 711z" />
<glyph unicode="&#xc3;" horiz-adv-x="1280" d="M35 0l506 1364h198l508 -1364h-182l-127 358h-596l-125 -358h-182zM297 1548q31 96 77 141.5t126 45.5q53 0 151.5 -45t128.5 -45q39 0 57.5 24.5t34.5 69.5l117 -43q-33 -90 -74 -138.5t-112 -48.5q-49 0 -151.5 46.5t-141.5 46.5q-37 0 -55.5 -23t-38.5 -74zM395 510 h492l-246 711z" />
<glyph unicode="&#xc4;" horiz-adv-x="1280" d="M35 0l506 1364h198l508 -1364h-182l-127 358h-596l-125 -358h-182zM334 1626q0 47 28.5 76t77.5 29t79 -29t30 -76t-30 -75.5t-79 -28.5t-77.5 28.5t-28.5 75.5zM395 510h492l-246 711zM733 1626q0 47 29 76t78 29t78.5 -29t29.5 -76t-29.5 -75.5t-78.5 -28.5t-78 28.5 t-29 75.5z" />
<glyph unicode="&#xc5;" horiz-adv-x="1280" d="M35 0l500 1350q-84 37 -84 137q0 74 49 122t141 48t141 -48t49 -122q0 -100 -88 -137l504 -1350h-182l-127 358h-596l-125 -358h-182zM395 510h492l-246 709zM541 1487q0 -45 26.5 -70.5t73.5 -25.5t73.5 25.5t26.5 70.5t-26.5 70.5t-73.5 25.5t-73.5 -25.5t-26.5 -70.5z " />
<glyph unicode="&#xc6;" horiz-adv-x="1740" d="M35 0l508 1364h1099v-156h-833l149 -426h637v-155h-581l164 -471h464v-156h-577l-129 360h-592l-127 -360h-182zM395 510h492l-246 715z" />
<glyph unicode="&#xc7;" horiz-adv-x="1214" d="M88 682q0 324 182.5 515.5t495.5 191.5q227 0 371 -70l-29 -145q-150 57 -309 57q-250 0 -390.5 -144.5t-140.5 -404.5t140.5 -404.5t390.5 -144.5q160 0 309 57l29 -145q-137 -66 -367 -70l-18 -71q190 -8 190 -125q0 -154 -309 -164l-6 88q164 8 164 68 q0 18 -12.5 30.5t-41 18.5t-48 8t-58.5 4l43 150q-272 27 -429 214t-157 486z" />
<glyph unicode="&#xc8;" horiz-adv-x="1138" d="M160 0v1364h878v-156h-698v-432h653v-155h-653v-465h700v-156h-880zM324 1765h231l170 -270h-166z" />
<glyph unicode="&#xc9;" horiz-adv-x="1138" d="M160 0v1364h878v-156h-698v-432h653v-155h-653v-465h700v-156h-880zM485 1495l170 270h232l-234 -270h-168z" />
<glyph unicode="&#xca;" horiz-adv-x="1138" d="M160 0v1364h878v-156h-698v-432h653v-155h-653v-465h700v-156h-880zM291 1495l231 270h170l236 -270h-170l-150 174l-147 -174h-170z" />
<glyph unicode="&#xcb;" horiz-adv-x="1138" d="M160 0v1364h878v-156h-698v-432h653v-155h-653v-465h700v-156h-880zM303 1626q0 47 28.5 76t78 29t79 -29t29.5 -76t-29.5 -75.5t-79 -28.5t-78 28.5t-28.5 75.5zM702 1626q0 47 29 76t78 29t79 -29t30 -76t-30 -75.5t-79 -28.5t-78 28.5t-29 75.5z" />
<glyph unicode="&#xcc;" horiz-adv-x="520" d="M-59 1765h231l170 -270h-166zM170 0v1364h180v-1364h-180z" />
<glyph unicode="&#xcd;" horiz-adv-x="520" d="M170 0v1364h180v-1364h-180zM180 1495l170 270h232l-234 -270h-168z" />
<glyph unicode="&#xce;" horiz-adv-x="520" d="M-57 1495l231 270h170l236 -270h-170l-150 174l-147 -174h-170zM170 0v1364h180v-1364h-180z" />
<glyph unicode="&#xcf;" horiz-adv-x="520" d="M-45 1626q0 47 28.5 76t78 29t79 -29t29.5 -76t-29.5 -75.5t-79 -28.5t-78 28.5t-28.5 75.5zM170 0v1364h180v-1364h-180zM354 1626q0 47 29 76t78 29t78.5 -29t29.5 -76t-29.5 -75.5t-78.5 -28.5t-78 28.5t-29 75.5z" />
<glyph unicode="&#xd0;" horiz-adv-x="1411" d="M55 606v154h138v604h485q287 0 470 -190.5t183 -491.5t-183 -491.5t-470 -190.5h-485v606h-138zM375 156h297q207 0 343 138t136 388t-136 388t-343 138h-297v-448h401v-154h-401v-450z" />
<glyph unicode="&#xd1;" horiz-adv-x="1419" d="M160 0v1364h178l747 -1083v1083h175v-1364h-179l-747 1083v-1083h-174zM365 1548q31 96 76.5 141.5t125.5 45.5q53 0 151.5 -45t129.5 -45q39 0 57.5 24.5t34.5 69.5l117 -43q-33 -90 -74 -138.5t-113 -48.5q-49 0 -151.5 46.5t-140.5 46.5q-37 0 -55.5 -23t-39.5 -74z " />
<glyph unicode="&#xd2;" d="M88 682q0 303 160 505t461 202t460.5 -202t159.5 -505t-159.5 -505t-460.5 -202t-461 202t-160 505zM268 682q0 -256 110.5 -406.5t330 -150.5t330 150.5t110.5 406.5t-110.5 406.5t-330 150.5t-330 -150.5t-110.5 -406.5zM401 1765h232l170 -270h-166z" />
<glyph unicode="&#xd3;" d="M88 682q0 303 160 505t461 202t460.5 -202t159.5 -505t-159.5 -505t-460.5 -202t-461 202t-160 505zM268 682q0 -256 110.5 -406.5t330 -150.5t330 150.5t110.5 406.5t-110.5 406.5t-330 150.5t-330 -150.5t-110.5 -406.5zM608 1495l170 270h232l-234 -270h-168z" />
<glyph unicode="&#xd4;" d="M88 682q0 303 160 505t461 202t460.5 -202t159.5 -505t-159.5 -505t-460.5 -202t-461 202t-160 505zM268 682q0 -256 110.5 -406.5t330 -150.5t330 150.5t110.5 406.5t-110.5 406.5t-330 150.5t-330 -150.5t-110.5 -406.5zM391 1495l232 270h170l235 -270h-170l-149 174 l-148 -174h-170z" />
<glyph unicode="&#xd5;" d="M88 682q0 303 160 505t461 202t460.5 -202t159.5 -505t-159.5 -505t-460.5 -202t-461 202t-160 505zM268 682q0 -256 110.5 -406.5t330 -150.5t330 150.5t110.5 406.5t-110.5 406.5t-330 150.5t-330 -150.5t-110.5 -406.5zM362 1548q31 96 77 141.5t126 45.5 q53 0 151.5 -45t129.5 -45q39 0 57.5 24.5t34.5 69.5l117 -43q-33 -90 -74 -138.5t-113 -48.5q-49 0 -151.5 46.5t-141.5 46.5q-37 0 -55 -23t-39 -74z" />
<glyph unicode="&#xd6;" d="M88 682q0 303 160 505t461 202t460.5 -202t159.5 -505t-159.5 -505t-460.5 -202t-461 202t-160 505zM268 682q0 -256 110.5 -406.5t330 -150.5t330 150.5t110.5 406.5t-110.5 406.5t-330 150.5t-330 -150.5t-110.5 -406.5zM401 1626q0 47 29 76t78 29t78.5 -29t29.5 -76 t-29.5 -75.5t-78.5 -28.5t-78 28.5t-29 75.5zM801 1626q0 47 28.5 76t77.5 29t79 -29t30 -76t-30 -75.5t-79 -28.5t-77.5 28.5t-28.5 75.5z" />
<glyph unicode="&#xd7;" horiz-adv-x="1077" d="M109 340l323 322l-323 323l106 107l324 -326l321 326l107 -109l-324 -321l326 -324l-107 -107l-323 326l-322 -326z" />
<glyph unicode="&#xd8;" d="M88 682q0 303 160 505t461 202q117 0 215 -35l75 182h127l-96 -229q147 -88 223 -254t76 -371q0 -303 -159.5 -505t-460.5 -202q-113 0 -215 33l-74 -180h-127l94 227q-147 88 -223 254t-76 373zM268 682q0 -340 181 -477l417 1007q-76 27 -157 27q-219 0 -330 -150.5 t-111 -406.5zM553 150q68 -25 156 -25q219 0 329.5 150.5t110.5 406.5q0 338 -180 475z" />
<glyph unicode="&#xd9;" horiz-adv-x="1382" d="M156 483v881h180v-895q0 -160 93 -251t261 -91t262.5 91t94.5 251v895h180v-881q0 -215 -140.5 -361.5t-396.5 -146.5t-395 146.5t-139 361.5zM410 1765h231l170 -270h-166z" />
<glyph unicode="&#xda;" horiz-adv-x="1382" d="M156 483v881h180v-895q0 -160 93 -251t261 -91t262.5 91t94.5 251v895h180v-881q0 -215 -140.5 -361.5t-396.5 -146.5t-395 146.5t-139 361.5zM571 1495l170 270h232l-234 -270h-168z" />
<glyph unicode="&#xdb;" horiz-adv-x="1382" d="M156 483v881h180v-895q0 -160 93 -251t261 -91t262.5 91t94.5 251v895h180v-881q0 -215 -140.5 -361.5t-396.5 -146.5t-395 146.5t-139 361.5zM373 1495l231 270h170l236 -270h-170l-150 174l-147 -174h-170z" />
<glyph unicode="&#xdc;" horiz-adv-x="1382" d="M156 483v881h180v-895q0 -160 93 -251t261 -91t262.5 91t94.5 251v895h180v-881q0 -215 -140.5 -361.5t-396.5 -146.5t-395 146.5t-139 361.5zM385 1626q0 47 28.5 76t78 29t79 -29t29.5 -76t-29.5 -75.5t-79 -28.5t-78 28.5t-28.5 75.5zM784 1626q0 47 29 76t78 29 t78.5 -29t29.5 -76t-29.5 -75.5t-78.5 -28.5t-78 28.5t-29 75.5z" />
<glyph unicode="&#xdd;" horiz-adv-x="1126" d="M23 1364h190l350 -653l350 653h189l-449 -813v-551h-180v551zM463 1495l170 270h231l-233 -270h-168z" />
<glyph unicode="&#xde;" horiz-adv-x="1202" d="M160 0v1364h180v-260h369q203 0 318.5 -117t115.5 -295q0 -174 -117 -292.5t-317 -118.5h-369v-281h-180zM340 426h348q127 0 200 71.5t73 194.5t-73 193.5t-200 70.5h-348v-530z" />
<glyph unicode="&#xdf;" horiz-adv-x="1153" d="M143 0v905q0 231 121 355t340 124q152 0 247 -75.5t95 -200.5q0 -25 -3 -47.5t-11 -45t-14.5 -36.5t-20.5 -36l-20 -31q-6 -9 -22.5 -31.5t-20.5 -26.5q-10 -14 -36 -46l-39 -49q-13 -17 -25.5 -46t-12.5 -56q0 -33 20.5 -57.5t45 -38.5t81.5 -43q109 -53 171.5 -112.5 t62.5 -153.5q0 -121 -91 -196.5t-237 -75.5q-154 0 -268 49l26 125q106 -41 232 -41q168 0 168 127q0 39 -25.5 68.5t-52.5 43t-90 41.5q-211 92 -211 252q0 23 3 45.5t12 43.5l16 37q6 15 20 38l21 32q6 9 23.5 31.5t21.5 26.5t32.5 41t38 52.5t22.5 47t13 60.5 q0 74 -52 112.5t-136 38.5q-131 0 -201 -90t-70 -260v-901h-174z" />
<glyph unicode="&#xe0;" horiz-adv-x="1048" d="M98 268q0 150 93.5 226.5t250.5 76.5h295v91q0 98 -57 143t-176 45q-160 0 -307 -68l-31 140q166 78 360 77q387 0 387 -325v-674h-168v166q-106 -186 -342 -186q-143 0 -224 77.5t-81 210.5zM268 270q0 -166 187 -166q121 0 201.5 81t80.5 198v61h-270q-199 0 -199 -174 zM293 1423h219l127 -311h-166z" />
<glyph unicode="&#xe1;" horiz-adv-x="1048" d="M98 268q0 150 93.5 226.5t250.5 76.5h295v91q0 98 -57 143t-176 45q-160 0 -307 -68l-31 140q166 78 360 77q387 0 387 -325v-674h-168v166q-106 -186 -342 -186q-143 0 -224 77.5t-81 210.5zM268 270q0 -166 187 -166q121 0 201.5 81t80.5 198v61h-270q-199 0 -199 -174 zM434 1112l125 311h221l-180 -311h-166z" />
<glyph unicode="&#xe2;" horiz-adv-x="1048" d="M98 268q0 150 93.5 226.5t250.5 76.5h295v91q0 98 -57 143t-176 45q-160 0 -307 -68l-31 140q166 78 360 77q387 0 387 -325v-674h-168v166q-106 -186 -342 -186q-143 0 -224 77.5t-81 210.5zM244 1112l211 311h176l211 -311h-164l-135 209l-135 -209h-164zM268 270 q0 -166 187 -166q121 0 201.5 81t80.5 198v61h-270q-199 0 -199 -174z" />
<glyph unicode="&#xe3;" horiz-adv-x="1048" d="M98 268q0 150 93.5 226.5t250.5 76.5h295v91q0 98 -57 143t-176 45q-160 0 -307 -68l-31 140q166 78 360 77q387 0 387 -325v-674h-168v166q-106 -186 -342 -186q-143 0 -224 77.5t-81 210.5zM207 1184q33 96 78 141t123 45q55 0 146 -46t120 -46q14 0 26.5 5t21.5 17.5 t13 19.5t12.5 27.5t10.5 24.5l116 -41q-55 -186 -190 -186q-51 0 -144.5 46t-129.5 46q-23 0 -41.5 -16.5t-26.5 -33t-20 -46.5zM268 270q0 -166 187 -166q121 0 201.5 81t80.5 198v61h-270q-199 0 -199 -174z" />
<glyph unicode="&#xe4;" horiz-adv-x="1048" d="M98 268q0 150 93.5 226.5t250.5 76.5h295v91q0 98 -57 143t-176 45q-160 0 -307 -68l-31 140q166 78 360 77q387 0 387 -325v-674h-168v166q-106 -186 -342 -186q-143 0 -224 77.5t-81 210.5zM248 1253q0 45 29.5 75t76.5 30q49 0 79 -30t30 -75t-30 -75.5t-79 -30.5 q-47 0 -76.5 30.5t-29.5 75.5zM268 270q0 -166 187 -166q121 0 201.5 81t80.5 198v61h-270q-199 0 -199 -174zM623 1253q0 45 29.5 75t78.5 30t78 -30t29 -75t-30 -75.5t-77 -30.5q-49 0 -78.5 30.5t-29.5 75.5z" />
<glyph unicode="&#xe5;" horiz-adv-x="1048" d="M98 268q0 150 93.5 226.5t250.5 76.5h295v91q0 98 -57 143t-176 45q-160 0 -307 -68l-31 140q166 78 360 77q387 0 387 -325v-674h-168v166q-106 -186 -342 -186q-143 0 -224 77.5t-81 210.5zM268 270q0 -166 187 -166q121 0 201.5 81t80.5 198v61h-270q-199 0 -199 -174 zM358 1282q0 74 48.5 122t140.5 48t141 -48t49 -122t-49 -122t-141 -48q-90 0 -139.5 48t-49.5 122zM446 1282q0 -45 27 -70.5t74 -25.5q100 0 100 96t-100 96q-47 0 -74 -25.5t-27 -70.5z" />
<glyph unicode="&#xe6;" horiz-adv-x="1662" d="M98 274q0 287 351 287h303v66q0 223 -252 223q-150 0 -293 -62l-31 134q147 78 336 77q254 0 340 -170q113 170 350 170q199 0 293 -124.5t94 -333.5v-107h-661q10 -162 83.5 -241.5t241.5 -79.5q143 0 295 63l31 -121q-156 -76 -350 -75q-137 0 -238.5 56t-148.5 148 q-139 -205 -398 -204q-162 0 -254 76.5t-92 217.5zM262 270q0 -168 203 -168q129 0 208 76t79 193v63h-289q-201 0 -201 -164zM930 561h491v25q0 289 -221 288q-247 0 -270 -313z" />
<glyph unicode="&#xe7;" horiz-adv-x="899" d="M80 489q0 242 121 376t346 134q174 0 287 -61l-29 -131q-109 49 -232 49q-317 0 -317 -366.5t317 -366.5q123 0 232 49l29 -133q-100 -55 -279 -59l-16 -76q193 -8 192 -125q0 -154 -309 -164l-6 88q164 8 164 68q0 35 -38 46t-114 15l37 154q-186 23 -285.5 153.5 t-99.5 349.5z" />
<glyph unicode="&#xe8;" horiz-adv-x="997" d="M82 489q0 231 115.5 370.5t334.5 139.5q203 0 297.5 -123.5t94.5 -338.5v-109h-664q10 -158 85 -237.5t239 -79.5q141 0 299 67l28 -123q-152 -76 -352 -75q-238 0 -357.5 138t-119.5 371zM260 557h496v25q0 293 -226 292q-247 0 -270 -317zM285 1423h219l127 -311h-166z " />
<glyph unicode="&#xe9;" horiz-adv-x="997" d="M82 489q0 231 115.5 370.5t334.5 139.5q203 0 297.5 -123.5t94.5 -338.5v-109h-664q10 -158 85 -237.5t239 -79.5q141 0 299 67l28 -123q-152 -76 -352 -75q-238 0 -357.5 138t-119.5 371zM260 557h496v25q0 293 -226 292q-247 0 -270 -317zM434 1112l125 311h221 l-180 -311h-166z" />
<glyph unicode="&#xea;" horiz-adv-x="997" d="M82 489q0 231 115.5 370.5t334.5 139.5q203 0 297.5 -123.5t94.5 -338.5v-109h-664q10 -158 85 -237.5t239 -79.5q141 0 299 67l28 -123q-152 -76 -352 -75q-238 0 -357.5 138t-119.5 371zM236 1112l210 311h177l211 -311h-164l-135 209l-136 -209h-163zM260 557h496v25 q0 293 -226 292q-247 0 -270 -317z" />
<glyph unicode="&#xeb;" horiz-adv-x="997" d="M82 489q0 231 115.5 370.5t334.5 139.5q203 0 297.5 -123.5t94.5 -338.5v-109h-664q10 -158 85 -237.5t239 -79.5q141 0 299 67l28 -123q-152 -76 -352 -75q-238 0 -357.5 138t-119.5 371zM242 1253q0 45 29.5 75t76.5 30q49 0 79 -30t30 -75t-30 -75.5t-79 -30.5 q-47 0 -76.5 30.5t-29.5 75.5zM260 557h496v25q0 293 -226 292q-247 0 -270 -317zM616 1253q0 45 30 75t79 30t77.5 -30t28.5 -75t-29.5 -75.5t-76.5 -30.5q-49 0 -79 30.5t-30 75.5z" />
<glyph unicode="&#xec;" horiz-adv-x="475" d="M-20 1423h219l127 -311h-166zM150 0v979h176v-979h-176z" />
<glyph unicode="&#xed;" horiz-adv-x="475" d="M150 0v979h176v-979h-176zM160 1112l125 311h221l-180 -311h-166z" />
<glyph unicode="&#xee;" horiz-adv-x="475" d="M-59 1112l211 311h176l211 -311h-164l-135 209l-136 -209h-163zM150 0v979h176v-979h-176z" />
<glyph unicode="&#xef;" horiz-adv-x="475" d="M-57 1253q0 45 29.5 75t76.5 30q49 0 79 -30t30 -75t-30 -75.5t-79 -30.5q-47 0 -76.5 30.5t-29.5 75.5zM150 0v979h176v-979h-176zM317 1253q0 45 30 75t79 30t77.5 -30t28.5 -75t-29.5 -75.5t-76.5 -30.5q-49 0 -79 30.5t-30 75.5z" />
<glyph unicode="&#xf0;" horiz-adv-x="1042" d="M78 440q0 203 104.5 333t300.5 130q223 0 324 -188q-43 227 -221 368l-158 -118l-72 92l127 94q-100 59 -239 100l39 133q199 -55 325 -141l162 121l70 -92l-135 -101q260 -229 260 -657q0 -219 -122 -376.5t-343 -157.5q-197 0 -309.5 135t-112.5 325zM250 440 q0 -143 67.5 -233t194.5 -90t203 96t76 233q0 139 -75 229.5t-198 90.5q-131 0 -199.5 -89.5t-68.5 -236.5z" />
<glyph unicode="&#xf1;" horiz-adv-x="1105" d="M150 0v979h169v-201q96 221 332 221q315 0 316 -333v-666h-176v639q0 209 -197 209q-119 0 -193.5 -87t-74.5 -237v-524h-176zM240 1184q33 96 77.5 141t122.5 45q55 0 146.5 -46t120.5 -46q14 0 26 5t21.5 17.5t13.5 19.5t12 27.5t11 24.5l116 -41q-55 -186 -190 -186 q-51 0 -144.5 46t-130.5 46q-23 0 -41 -16.5t-26 -33t-21 -46.5z" />
<glyph unicode="&#xf2;" horiz-adv-x="1054" d="M82 489.5q0 227.5 115.5 368.5t330.5 141t330 -141t115 -368.5t-115 -368.5t-330 -141t-330.5 141t-115.5 368.5zM258 489.5q0 -176.5 67.5 -274.5t203 -98t202 98t66.5 274.5t-66.5 274.5t-202 98t-203 -98t-67.5 -274.5zM268 1423h219l127 -311h-165z" />
<glyph unicode="&#xf3;" horiz-adv-x="1054" d="M82 489.5q0 227.5 115.5 368.5t330.5 141t330 -141t115 -368.5t-115 -368.5t-330 -141t-330.5 141t-115.5 368.5zM258 489.5q0 -176.5 67.5 -274.5t203 -98t202 98t66.5 274.5t-66.5 274.5t-202 98t-203 -98t-67.5 -274.5zM438 1112l125 311h221l-180 -311h-166z" />
<glyph unicode="&#xf4;" horiz-adv-x="1054" d="M82 489.5q0 227.5 115.5 368.5t330.5 141t330 -141t115 -368.5t-115 -368.5t-330 -141t-330.5 141t-115.5 368.5zM229 1112l211 311h176l211 -311h-163l-136 209l-135 -209h-164zM258 489.5q0 -176.5 67.5 -274.5t203 -98t202 98t66.5 274.5t-66.5 274.5t-202 98 t-203 -98t-67.5 -274.5z" />
<glyph unicode="&#xf5;" horiz-adv-x="1054" d="M82 489.5q0 227.5 115.5 368.5t330.5 141t330 -141t115 -368.5t-115 -368.5t-330 -141t-330.5 141t-115.5 368.5zM201 1184q33 96 78 141t122 45q55 0 146.5 -46t120.5 -46q14 0 26.5 5t21.5 17.5t13 19.5t12.5 27.5t10.5 24.5l116 -41q-55 -186 -190 -186 q-51 0 -144.5 46t-130.5 46q-23 0 -41 -16.5t-26 -33t-21 -46.5zM258 489.5q0 -176.5 67.5 -274.5t203 -98t202 98t66.5 274.5t-66.5 274.5t-202 98t-203 -98t-67.5 -274.5z" />
<glyph unicode="&#xf6;" horiz-adv-x="1054" d="M82 489.5q0 227.5 115.5 368.5t330.5 141t330 -141t115 -368.5t-115 -368.5t-330 -141t-330.5 141t-115.5 368.5zM233 1253q0 45 30 75t77 30q49 0 79 -30t30 -75t-30 -75.5t-79 -30.5q-47 0 -77 30.5t-30 75.5zM258 489.5q0 -176.5 67.5 -274.5t203 -98t202 98 t66.5 274.5t-66.5 274.5t-202 98t-203 -98t-67.5 -274.5zM608 1253q0 45 30 75t79 30t77.5 -30t28.5 -75t-29.5 -75.5t-76.5 -30.5q-49 0 -79 30.5t-30 75.5z" />
<glyph unicode="&#xf7;" horiz-adv-x="1103" d="M109 588v147h886v-147h-886zM436 287q0 49 33 80.5t82 31.5t83 -31.5t34 -80.5t-34 -81t-83 -32t-82 32t-33 81zM436 1036q0 49 33 81t82 32t83 -32t34 -81t-34 -80.5t-83 -31.5t-82 31.5t-33 80.5z" />
<glyph unicode="&#xf8;" horiz-adv-x="1054" d="M82 489q0 227 115.5 368.5t330.5 141.5q78 0 158 -24l76 176h100l-92 -215q203 -129 203 -447q0 -227 -115 -368t-330 -141q-78 0 -157 24l-76 -176h-100l92 215q-205 124 -205 446zM258 489q0 -211 90 -303l281 658q-43 18 -101 18q-135 0 -202.5 -98.5t-67.5 -274.5z M426 135q45 -18 102 -18q135 0 202 98t67 274q0 209 -90 302z" />
<glyph unicode="&#xf9;" horiz-adv-x="1095" d="M139 311v668h176v-639q0 -209 191 -209q117 0 190.5 87t73.5 237v524h176v-979h-172v199q-94 -219 -328 -219q-307 -1 -307 331zM326 1423h219l127 -311h-166z" />
<glyph unicode="&#xfa;" horiz-adv-x="1095" d="M139 311v668h176v-639q0 -209 191 -209q117 0 190.5 87t73.5 237v524h176v-979h-172v199q-94 -219 -328 -219q-307 -1 -307 331zM436 1112l125 311h221l-180 -311h-166z" />
<glyph unicode="&#xfb;" horiz-adv-x="1095" d="M139 311v668h176v-639q0 -209 191 -209q117 0 190.5 87t73.5 237v524h176v-979h-172v199q-94 -219 -328 -219q-307 -1 -307 331zM248 1112l211 311h176l211 -311h-164l-135 209l-135 -209h-164z" />
<glyph unicode="&#xfc;" horiz-adv-x="1095" d="M139 311v668h176v-639q0 -209 191 -209q117 0 190.5 87t73.5 237v524h176v-979h-172v199q-94 -219 -328 -219q-307 -1 -307 331zM256 1253q0 45 29.5 75t76.5 30q49 0 79 -30t30 -75t-29.5 -75.5t-79.5 -30.5q-47 0 -76.5 30.5t-29.5 75.5zM631 1253q0 45 29.5 75 t78.5 30t78 -30t29 -75t-30 -75.5t-77 -30.5q-49 0 -78.5 30.5t-29.5 75.5z" />
<glyph unicode="&#xfd;" horiz-adv-x="878" d="M8 979h182l252 -795l246 795h182l-458 -1344h-176l120 361zM348 1112l125 311h221l-180 -311h-166z" />
<glyph unicode="&#xfe;" horiz-adv-x="1118" d="M150 -365v1729h176v-571q104 207 325 206q193 0 290 -141t97 -368.5t-97 -368.5t-292 -141q-113 0 -196.5 56t-126.5 150v-551h-176zM326 489.5q0 -159.5 71.5 -264t206.5 -104.5q258 0 258 368.5t-258 368.5q-135 0 -206.5 -104.5t-71.5 -264z" />
<glyph unicode="&#xff;" horiz-adv-x="878" d="M8 979h182l252 -795l246 795h182l-458 -1344h-176l120 361zM150 1253q0 45 29.5 75t76.5 30q49 0 79 -30t30 -75t-30 -75.5t-79 -30.5q-47 0 -76.5 30.5t-29.5 75.5zM524 1253q0 45 30 75t79 30t77.5 -30t28.5 -75t-29.5 -75.5t-76.5 -30.5q-49 0 -79 30.5t-30 75.5z" />
<glyph unicode="&#x152;" horiz-adv-x="2058" d="M88 682q0 330 174 518.5t520 188.5q147 0 289 -25h881v-156h-701v-426h654v-155h-654v-471h701v-156h-881q-141 -25 -289 -25q-346 0 -520 188.5t-174 518.5zM266 682q0 -260 129 -407.5t393 -147.5q150 0 283 27v1056q-150 27 -287 27q-260 0 -389 -149.5t-129 -405.5z " />
<glyph unicode="&#x153;" horiz-adv-x="1712" d="M82 489.5q0 227.5 115.5 368.5t330.5 141q233 0 353 -192q117 193 366 192q201 0 296 -125.5t95 -336.5v-107h-663q10 -158 87 -237.5t236 -79.5q154 0 301 63l29 -121q-156 -76 -354 -75q-135 0 -238.5 53t-150.5 141q-117 -195 -357 -194q-215 0 -330.5 141 t-115.5 368.5zM258 489.5q0 -368.5 270 -368.5q135 0 203 97t68 271.5t-67.5 271.5t-203.5 97q-270 0 -270 -368.5zM975 557h498v25q0 293 -228 292q-247 0 -270 -317z" />
<glyph unicode="&#x178;" horiz-adv-x="1120" d="M20 1364h191l350 -653l350 653h189l-449 -813v-551h-180v551zM254 1626q0 47 28.5 76t78 29t79 -29t29.5 -76t-29.5 -75.5t-79 -28.5t-78 28.5t-28.5 75.5zM653 1626q0 47 29 76t78 29t78.5 -29t29.5 -76t-29.5 -75.5t-78.5 -28.5t-78 28.5t-29 75.5z" />
<glyph unicode="&#x2c6;" horiz-adv-x="917" d="M160 1112l211 311h176l211 -311h-164l-135 209l-135 -209h-164z" />
<glyph unicode="&#x2dc;" horiz-adv-x="985" d="M160 1184q33 96 78 141t122 45q55 0 146.5 -46t120.5 -46q14 0 26.5 5t21.5 17.5t13 19.5t12.5 27.5t10.5 24.5l116 -41q-55 -186 -190 -186q-51 0 -144.5 46t-130.5 46q-23 0 -41 -16.5t-26 -33t-21 -46.5z" />
<glyph unicode="&#x2013;" horiz-adv-x="1146" d="M123 514v150h901v-150h-901z" />
<glyph unicode="&#x2014;" horiz-adv-x="1599" d="M123 514v150h1354v-150h-1354z" />
<glyph unicode="&#x2018;" horiz-adv-x="446" d="M57 877l195 487h143l-125 -487h-213z" />
<glyph unicode="&#x2019;" horiz-adv-x="440" d="M51 877l125 487h213l-194 -487h-144z" />
<glyph unicode="&#x201a;" horiz-adv-x="514" d="M59 -256l123 485h213l-194 -485h-142z" />
<glyph unicode="&#x201c;" horiz-adv-x="872" d="M61 877l195 487h143l-125 -487h-213zM487 877l197 487h141l-123 -487h-215z" />
<glyph unicode="&#x201d;" horiz-adv-x="872" d="M51 877l125 487h213l-194 -487h-144zM479 877l123 487h215l-196 -487h-142z" />
<glyph unicode="&#x201e;" horiz-adv-x="942" d="M59 -256l123 485h213l-194 -485h-142zM485 -256l125 485h213l-194 -485h-144z" />
<glyph unicode="&#x2022;" horiz-adv-x="727" d="M102 718.5q0 108.5 73 182.5t187.5 74t188.5 -74t74 -182.5t-74 -182t-188.5 -73.5t-187.5 73.5t-73 182z" />
<glyph unicode="&#x2026;" horiz-adv-x="1560" d="M139 106.5q0 53.5 33 86t88 32.5t88 -32.5t33 -86t-33 -87t-88 -33.5t-88 33.5t-33 87zM659 106.5q0 53.5 33 86t88.5 32.5t88 -32.5t32.5 -86t-32.5 -87t-88 -33.5t-88.5 33.5t-33 87zM1180 106.5q0 53.5 32.5 86t88 32.5t88 -32.5t32.5 -86t-32.5 -87t-88 -33.5 t-88 33.5t-32.5 87z" />
<glyph unicode="&#x2039;" horiz-adv-x="692" d="M61 498l338 417h201l-336 -417l336 -420h-201z" />
<glyph unicode="&#x203a;" horiz-adv-x="692" d="M92 78l336 420l-336 417h201l338 -417l-338 -420h-201z" />
<glyph unicode="&#x20ac;" horiz-adv-x="1193" d="M78 430v131h166q-4 78 -4 121t4 121h-166v131h186q96 451 535 450q186 0 313 -63l-27 -129q-129 51 -264 51q-313 0 -383 -309h492v-131h-510q-4 -78 -4 -121q0 -47 4 -121h510v-131h-492q70 -309 383 -309q135 0 264 51l27 -129q-127 -63 -313 -63q-438 0 -535 450h-186 z" />
<glyph unicode="&#x2122;" horiz-adv-x="1421" d="M57 1270v94h480v-94h-185v-545h-110v545h-185zM653 725v639h119l195 -438l194 438h119v-639h-102v451l-154 -347h-115l-153 347v-451h-103z" />
<glyph unicode="&#xe000;" horiz-adv-x="980" d="M0 980h980v-980h-980v980z" />
<glyph unicode="&#xfb01;" horiz-adv-x="1077" d="M55 838v141h131v106q0 154 66.5 226.5t208.5 72.5q78 0 145 -24l-10 -129q-47 14 -98 14q-72 0 -104 -38t-32 -124v-104h201v-141h-201v-838h-176v838h-131zM721 1243q0 49 32.5 84t86.5 35q51 0 83.5 -35t32.5 -84t-32.5 -84t-83.5 -35q-53 0 -86 35t-33 84zM752 0v979 h176v-979h-176z" />
<glyph unicode="&#xfb02;" horiz-adv-x="1157" d="M55 838v141h131v106q0 154 66.5 226.5t208.5 72.5q76 0 147 -24l-10 -129q-49 14 -100 14q-72 0 -104 -38t-32 -124v-104h201v-141h-201v-838h-176v838h-131zM748 240v1124h176v-1124q0 -113 98 -113q37 0 78 10l6 -133q-59 -18 -139 -18q-219 0 -219 254z" />
<glyph unicode="&#xfb03;" horiz-adv-x="1695" d="M1340 1243q0 49 32.5 84t86.5 35q51 0 83.5 -35t32.5 -84t-32.5 -84t-83.5 -35q-53 0 -86 35t-33 84zM1371 0v979h176v-979h-176zM665 838v141h131v106q0 154 66.5 226.5t208.5 72.5q84 0 153 -24l-10 -129q-51 14 -106 14q-72 0 -104 -38t-32 -124v-104h201v-141h-201 v-838h-176v838h-131zM55 838v141h131v106q0 154 66.5 226.5t208.5 72.5q84 0 153 -24l-10 -129q-51 14 -106 14q-72 0 -104 -38t-32 -124v-104h201v-141h-201v-838h-176v838h-131z" />
<glyph unicode="&#xfb04;" horiz-adv-x="1775" d="M1366 240v1124h177v-1124q0 -113 98 -113q37 0 78 10l6 -133q-59 -18 -139 -18q-220 0 -220 254zM665 838v141h131v106q0 154 66.5 226.5t208.5 72.5q84 0 153 -24l-10 -129q-51 14 -106 14q-72 0 -104 -38t-32 -124v-104h201v-141h-201v-838h-176v838h-131zM55 838v141 h131v106q0 154 66.5 226.5t208.5 72.5q84 0 153 -24l-10 -129q-51 14 -106 14q-72 0 -104 -38t-32 -124v-104h201v-141h-201v-838h-176v838h-131z" />
</font>
</defs>
</svg>
